<svg width="24" height="24" viewBox="0 0 24 24" fill="none" xmlns="http://www.w3.org/2000/svg">
<g clip-path="url(#clip0_131_11335)">
<path d="M22.6667 0H1.33333C0.596954 0 0 0.596954 0 1.33333V22.6667C0 23.403 0.596954 24 1.33333 24H22.6667C23.403 24 24 23.403 24 22.6667V1.33333C24 0.596954 23.403 0 22.6667 0Z" fill="#117EB8"/>
<path fill-rule="evenodd" clip-rule="evenodd" d="M4.37975 9.28264H7.58741V19.6033H4.37975V9.28264ZM5.98408 4.15231C7.00975 4.15231 7.84308 4.98564 7.84308 6.01131C7.84308 7.03798 7.00975 7.87164 5.98408 7.87164C5.7369 7.87632 5.49127 7.83168 5.26155 7.74033C5.03182 7.64897 4.82262 7.51274 4.64616 7.33959C4.4697 7.16644 4.32953 6.95985 4.23384 6.73189C4.13815 6.50394 4.08887 6.2592 4.08887 6.01198C4.08887 5.76476 4.13815 5.52001 4.23384 5.29206C4.32953 5.06411 4.4697 4.85752 4.64616 4.68437C4.82262 4.51122 5.03182 4.37498 5.26155 4.28363C5.49127 4.19227 5.7369 4.14763 5.98408 4.15231ZM9.59941 9.28231H12.6761V10.6926H12.7187C13.1471 9.88131 14.1934 9.02598 15.7537 9.02598C19.0017 9.02598 19.6017 11.1636 19.6017 13.9426V19.6033H16.3961V14.5843C16.3961 13.3876 16.3741 11.848 14.7294 11.848C13.0604 11.848 12.8041 13.1516 12.8041 14.498V19.6033H9.59908V9.28264L9.59941 9.28231Z" fill="white"/>
</g>
<defs>
<clipPath id="clip0_131_11335">
<rect width="24" height="24" fill="white"/>
</clipPath>
</defs>
</svg>
