<svg width="38" height="60" viewBox="0 0 38 60" fill="none" xmlns="http://www.w3.org/2000/svg">
<path d="M33.7778 0H4.22222C3.10242 0 2.02848 0.451529 1.23666 1.25526C0.444841 2.05898 0 3.14907 0 4.28571V55.7143C0 56.8509 0.444841 57.941 1.23666 58.7447C2.02848 59.5485 3.10242 60 4.22222 60H33.7778C34.8976 60 35.9715 59.5485 36.7633 58.7447C37.5552 57.941 38 56.8509 38 55.7143V4.28571C38 3.14907 37.5552 2.05898 36.7633 1.25526C35.9715 0.451529 34.8976 0 33.7778 0ZM21.1111 55.7143H16.8889V51.4286H21.1111V55.7143ZM4.22222 47.1429V4.28571H33.7778V47.1429H4.22222Z" fill="#0061FF"/>
</svg>
