<svg width="26" height="11" viewBox="0 0 26 11" fill="none" xmlns="http://www.w3.org/2000/svg">
<path fill-rule="evenodd" clip-rule="evenodd" d="M11.9913 8.14162V5.0871H13.6128C14.2773 5.0871 14.8381 4.87064 15.2953 4.44373L15.4051 4.3355C16.2402 3.45161 16.1854 2.07467 15.2953 1.25693C14.8503 0.824003 14.2407 0.589503 13.6128 0.601528H11.0098V8.14162H11.9913ZM11.9914 4.16114V1.52752H13.6376C13.9912 1.52752 14.3266 1.6598 14.5765 1.90031C15.107 2.40539 15.1192 3.24719 14.607 3.77031C14.357 4.02886 14.0034 4.17316 13.6376 4.16114H11.9914ZM19.9832 3.38548C19.5626 3.00667 18.9896 2.81426 18.2641 2.81426C17.3314 2.81426 16.6304 3.15098 16.1671 3.81841L17.0327 4.35355C17.3497 3.89657 17.7826 3.66809 18.3312 3.66809C18.6787 3.66809 19.0139 3.79436 19.2761 4.02284C19.5321 4.23931 19.6784 4.55197 19.6784 4.88268V5.10515C19.3005 4.90072 18.825 4.79249 18.2398 4.79249C17.557 4.79249 17.0084 4.94882 16.5999 5.2675C16.1915 5.58618 15.9842 6.00708 15.9842 6.54222C15.972 7.02926 16.1854 7.49225 16.5633 7.80492C16.9474 8.14163 17.4351 8.30999 18.0081 8.30999C18.6848 8.30999 19.2212 8.01536 19.6296 7.42611H19.6723V8.14163H20.6111V4.96085C20.6111 4.29342 20.4038 3.76429 19.9832 3.38548ZM17.3194 7.19158C17.1182 7.04727 16.9963 6.81277 16.9963 6.56023C16.9963 6.27763 17.1304 6.04313 17.3926 5.85673C17.6609 5.67033 17.9962 5.57413 18.3925 5.57413C18.9412 5.56811 19.368 5.68837 19.6729 5.92888C19.6729 6.33776 19.5083 6.69251 19.1851 6.99316C18.8925 7.28177 18.4962 7.44412 18.0816 7.44412C17.8072 7.45013 17.5389 7.35994 17.3194 7.19158ZM22.7203 10.4085L26 2.98263H24.9332L23.4153 6.68654H23.397L21.8425 2.98263H20.7757L22.9276 7.81094L21.7084 10.4085H22.7203Z" fill="#3C4043"/>
<path d="M8.60294 4.42565C8.60294 4.13102 8.57856 3.83639 8.52979 3.54777H4.39059V5.21333H6.76194C6.66441 5.74847 6.34741 6.2295 5.88412 6.53014V7.61245H7.29839C8.12745 6.86085 8.60294 5.74847 8.60294 4.42565Z" fill="#4285F4"/>
<path d="M4.3908 8.6587C5.57343 8.6587 6.57317 8.27388 7.2986 7.61247L5.88432 6.53016C5.48808 6.79472 4.98211 6.94504 4.3908 6.94504C3.24475 6.94504 2.27548 6.18141 1.92801 5.15923H0.471058V6.27762C1.21477 7.73874 2.73268 8.6587 4.3908 8.6587Z" fill="#34A853"/>
<path d="M1.92817 5.15923C1.74526 4.62409 1.74526 4.04085 1.92817 3.49969V2.38732H0.470992C-0.156997 3.60792 -0.156997 5.051 0.470992 6.27161L1.92817 5.15923Z" fill="#FBBC04"/>
<path d="M4.3908 1.71392C5.01869 1.70189 5.62219 1.93639 6.0733 2.36331L7.32908 1.12466C6.5305 0.391096 5.48199 -0.011764 4.3908 0.000261684C2.73268 0.000261684 1.21477 0.926238 0.471058 2.38736L1.92801 3.50574C2.27548 2.47755 3.24475 1.71392 4.3908 1.71392Z" fill="#EA4335"/>
</svg>
