<svg width="209" height="63" viewBox="0 0 209 63" fill="none" xmlns="http://www.w3.org/2000/svg">
<path d="M30.1843 23.73C30.1843 27.3 27.2497 30.24 23.6863 30.24C20.1229 30.24 17.1883 27.3 17.1883 23.73C17.1883 20.16 20.1229 17.22 23.6863 17.22C27.2497 17.22 30.1843 20.16 30.1843 23.73ZM23.6863 32.76C20.1229 32.76 17.1883 35.7 17.1883 39.27C17.1883 42.84 20.1229 45.78 23.6863 45.78C27.2497 45.78 30.1843 42.84 30.1843 39.27C30.1843 35.7 27.2497 32.76 23.6863 32.76ZM62.884 31.5C62.884 48.93 48.8399 63 31.442 63C14.0441 63 0 48.93 0 31.5C0 14.07 14.0441 0 31.442 0C48.8399 0 62.884 14.07 62.884 31.5ZM54.4995 31.5C54.4995 18.69 44.2284 8.4 31.442 8.4C18.6556 8.4 8.38453 18.69 8.38453 31.5C8.38453 44.31 18.6556 54.6 31.442 54.6C44.2284 54.6 54.4995 44.31 54.4995 31.5ZM39.1977 32.76C35.6343 32.76 32.6997 35.7 32.6997 39.27C32.6997 42.84 35.6343 45.78 39.1977 45.78C42.7611 45.78 45.6957 42.84 45.6957 39.27C45.6957 35.7 42.7611 32.76 39.1977 32.76ZM39.1977 17.22C35.6343 17.22 32.6997 20.16 32.6997 23.73C32.6997 27.3 35.6343 30.24 39.1977 30.24C42.7611 30.24 45.6957 27.3 45.6957 23.73C45.6957 20.16 42.7611 17.22 39.1977 17.22ZM147.358 12.39C147.568 12.39 147.777 12.6 147.987 12.81V19.53C147.987 19.95 147.568 20.16 147.358 20.16H136.249C135.829 20.16 135.62 19.74 135.62 19.53V13.02C135.62 12.6 136.039 12.39 136.249 12.39H147.358ZM147.149 21.84H125.768C125.558 21.84 125.139 22.05 125.139 22.47L122.414 32.97L122.205 33.6L118.851 22.47C118.851 22.26 118.432 21.84 118.222 21.84H109.837C109.628 21.84 109.209 22.05 109.209 22.47L106.064 32.97L105.855 33.6L105.645 32.97L104.387 27.72L103.13 22.47C103.13 22.26 102.711 21.84 102.501 21.84H85.7319V12.81C85.7319 12.6 85.3126 12.18 84.8934 12.39L74.4127 15.75C73.9935 15.75 73.7839 15.96 73.7839 16.38V22.05H71.0589C70.8493 22.05 70.4301 22.26 70.4301 22.68V30.66C70.4301 30.87 70.6397 31.29 71.0589 31.29H73.7839V41.16C73.7839 48.09 77.5569 51.24 84.4742 51.24C87.4088 51.24 90.1337 50.61 92.0203 49.56V41.16C92.0203 40.74 91.601 40.53 91.3914 40.74C90.3434 41.16 89.2953 41.37 88.4568 41.37C86.5703 41.37 85.5222 40.53 85.5222 38.43V31.29H91.601C91.8106 31.29 92.2299 31.08 92.2299 30.66V23.94L100.195 50.4C100.195 50.61 100.614 51.03 100.824 51.03H109.628C109.837 51.03 110.257 50.82 110.257 50.4L114.03 38.64L115.916 44.73L117.593 50.4C117.593 50.61 118.012 51.03 118.222 51.03H127.026C127.235 51.03 127.655 50.82 127.655 50.4L135.62 23.94V50.4C135.62 50.61 135.829 51.03 136.249 51.03H146.939C147.149 51.03 147.568 50.82 147.568 50.4V22.47C147.568 22.26 147.358 21.84 147.149 21.84ZM161.193 12.39H150.502C150.293 12.39 149.874 12.6 149.874 13.02V50.19C149.874 50.4 150.083 50.82 150.502 50.82H161.193C161.402 50.82 161.821 50.61 161.821 50.19V12.81C161.821 12.6 161.612 12.39 161.193 12.39ZM175.446 12.39H164.337C164.127 12.39 163.708 12.6 163.708 13.02V19.53C163.708 19.74 163.918 20.16 164.337 20.16H175.446C175.656 20.16 176.075 19.95 176.075 19.53V12.81C176.075 12.6 175.866 12.39 175.446 12.39ZM175.237 21.84H164.546C164.337 21.84 163.918 22.05 163.918 22.47V49.98C163.918 50.19 164.127 50.61 164.546 50.61H175.237C175.446 50.61 175.866 50.4 175.866 49.98V22.47C175.866 22.26 175.656 21.84 175.237 21.84ZM208.985 36.12C208.985 44.1 202.277 51.03 192.844 51.03C183.621 51.03 176.914 44.1 176.914 36.12C176.914 28.14 183.621 21.21 193.054 21.21C202.277 21.21 208.985 28.14 208.985 36.12ZM197.665 36.33C197.665 33.39 195.569 31.08 193.054 31.29C190.329 31.29 188.442 33.6 188.442 36.33C188.442 39.06 190.539 41.37 193.054 41.37C195.779 41.37 197.665 39.06 197.665 36.33Z" fill="#F22F46"/>
</svg>
