<svg width="16" height="16" viewBox="0 0 16 16" fill="none" xmlns="http://www.w3.org/2000/svg">
<path d="M14.3335 7.33331V11.3333C14.3335 14 13.6668 14.6666 11.0001 14.6666H4.33346C1.66679 14.6666 1.00012 14 1.00012 11.3333V4.66665C1.00012 1.99998 1.66679 1.33331 4.33346 1.33331H5.33346C6.33346 1.33331 6.55346 1.62665 6.93346 2.13331L7.93346 3.46665C8.18679 3.79998 8.33346 3.99998 9.00012 3.99998H11.0001C13.6668 3.99998 14.3335 4.66665 14.3335 7.33331Z" stroke="#75839D" stroke-miterlimit="10"/>
<path d="M5.33337 1.33331H11.3334C12.6667 1.33331 13.3334 1.99998 13.3334 3.33331V4.25331" stroke="#75839D" stroke-miterlimit="10" stroke-linecap="round" stroke-linejoin="round"/>
<path d="M9.33333 10H6" stroke="#75839D" stroke-miterlimit="10" stroke-linecap="round" stroke-linejoin="round"/>
</svg>
