<svg width="25" height="25" viewBox="0 0 25 25" fill="none" xmlns="http://www.w3.org/2000/svg">
<path d="M12.4971 0L12.9007 1.24161H14.2128L13.156 2.00942L13.5538 3.25235L12.4971 2.48454L11.4403 3.25235L11.844 2.01008L10.7872 1.24227H12.0934L12.4971 0ZM7.10345 1.4383L7.50707 2.67991H8.81916L7.76243 3.44772L8.16024 4.69064L7.10345 3.92283L6.04666 4.69064L6.45034 3.44838L5.39361 2.68057H6.69983L7.10345 1.4383ZM3.14813 5.39361L3.55175 6.63522H4.86384L3.80711 7.40303L4.20492 8.64596L3.14813 7.87815L2.09134 8.64596L2.49502 7.40369L1.4383 6.63588H2.74451L3.14813 5.39361ZM1.70984 10.7872L2.11346 12.0288H3.42554L2.36882 12.7967L2.76662 14.0396L1.70984 13.2718L0.653047 14.0396L1.05673 12.7972L0 12.0295H1.30621L1.70984 10.7872ZM3.14813 16.1808L3.55175 17.4225H4.86384L3.80711 18.1903L4.20492 19.4332L3.14813 18.6654L2.09134 19.4332L2.49502 18.1909L1.4383 17.4231H2.74451L3.14813 16.1808ZM7.10345 20.1362L7.50707 21.3778H8.81916L7.76243 22.1456L8.16024 23.3885L7.10345 22.6208L6.04666 23.3885L6.45034 22.1462L5.39361 21.3784H6.69983L7.10345 20.1362ZM17.8907 1.4383L18.2943 2.67991H19.6064L18.5497 3.44772L18.9474 4.69064L17.8907 3.92283L16.8338 4.69064L17.2376 3.44838L16.1808 2.68057H17.487L17.8907 1.4383ZM21.846 5.39361L22.2496 6.63522H23.5617L22.505 7.40303L22.9027 8.64596L21.846 7.87815L20.7891 8.64596L21.1929 7.40369L20.1362 6.63588H21.4423L21.846 5.39361ZM23.2843 10.7872L23.6879 12.0288H25L23.9433 12.7967L24.3411 14.0396L23.2843 13.2718L22.2275 14.0396L22.6312 12.7972L21.5745 12.0295H22.8807L23.2843 10.7872ZM21.846 16.1808L22.2496 17.4225H23.5617L22.505 18.1903L22.9028 19.4332L21.846 18.6654L20.7892 19.4332L21.1929 18.1909L20.1362 17.4231H21.4424L21.846 16.1808ZM12.4971 21.5744L12.9007 22.8161H14.2128L13.156 23.5839L13.5538 24.8268L12.4971 24.059L11.4403 24.8268L11.844 23.5845L10.7872 22.8167H12.0934L12.4971 21.5744ZM17.8907 20.1361L18.2943 21.3778H19.6064L18.5497 22.1456L18.9475 23.3885L17.8907 22.6207L16.8339 23.3885L17.2376 22.1462L16.1808 21.3784H17.4871L17.8907 20.1361Z" fill="#FFCC00"/>
</svg>
