<svg width="16" height="16" viewBox="0 0 16 16" fill="none" xmlns="http://www.w3.org/2000/svg">
<path d="M12.0001 2.98666C10.9392 1.92579 9.50041 1.3298 8.00012 1.3298C6.49982 1.3298 5.06098 1.92579 4.00012 2.98666C2.93925 4.04752 2.34326 5.48637 2.34326 6.98666C2.34326 8.48695 2.93925 9.92579 4.00012 10.9867L7.51345 14.5067C7.57542 14.5691 7.64916 14.6187 7.7304 14.6526C7.81164 14.6864 7.89877 14.7039 7.98678 14.7039C8.07479 14.7039 8.16193 14.6864 8.24317 14.6526C8.32441 14.6187 8.39814 14.5691 8.46011 14.5067L12.0001 10.9533C13.0565 9.89687 13.65 8.46403 13.65 6.96999C13.65 5.47596 13.0565 4.04311 12.0001 2.98666ZM11.0468 9.99999L8.00012 13.06L4.95345 9.99999C4.35155 9.39754 3.94177 8.63016 3.77591 7.79485C3.61006 6.95955 3.69557 6.09382 4.02165 5.30711C4.34773 4.5204 4.89973 3.84802 5.60787 3.37498C6.31601 2.90193 7.14851 2.64945 8.00012 2.64945C8.85173 2.64945 9.68422 2.90193 10.3924 3.37498C11.1005 3.84802 11.6525 4.5204 11.9786 5.30711C12.3047 6.09382 12.3902 6.95955 12.2243 7.79485C12.0585 8.63016 11.6487 9.39754 11.0468 9.99999ZM6.00012 4.93999C5.46193 5.47984 5.15971 6.21104 5.15971 6.97332C5.15971 7.73561 5.46193 8.46681 6.00012 9.00666C6.39996 9.40718 6.90917 9.68071 7.46388 9.79293C8.01859 9.90514 8.59408 9.85105 9.11816 9.63743C9.64224 9.42381 10.0916 9.06018 10.4098 8.59216C10.728 8.12414 10.9009 7.57257 10.9068 7.00666C10.9098 6.62879 10.837 6.25416 10.6927 5.90492C10.5484 5.55567 10.3356 5.2389 10.0668 4.97332C9.80256 4.70304 9.4875 4.48768 9.13973 4.33963C8.79196 4.19159 8.41834 4.11377 8.04038 4.11068C7.66242 4.10758 7.28758 4.17926 6.93743 4.32158C6.58728 4.46391 6.26873 4.67408 6.00012 4.93999ZM9.12678 8.05999C8.87414 8.31649 8.54026 8.47726 8.1822 8.51483C7.82414 8.55239 7.46416 8.46442 7.16379 8.26594C6.86342 8.06747 6.64131 7.77082 6.53545 7.42671C6.42959 7.08261 6.44655 6.71242 6.58342 6.37943C6.72029 6.04644 6.96858 5.77134 7.28584 5.60115C7.6031 5.43096 7.96962 5.37626 8.32274 5.4464C8.67586 5.51654 8.99366 5.70716 9.22179 5.98568C9.44992 6.26419 9.57423 6.6133 9.57345 6.97332C9.56375 7.38484 9.39111 7.77568 9.09345 8.05999H9.12678Z" fill="#262B35"/>
</svg>
