<svg width="320" height="295" viewBox="0 0 320 295" fill="none" xmlns="http://www.w3.org/2000/svg">
<path d="M166.351 254.321C235.129 254.321 270.013 222.886 263.23 157.485C256.448 92.0835 285.054 99.5627 313.208 72.0258C333.89 51.7997 299.19 -18.9123 239.251 21.8534C179.313 62.6191 152.063 -10.2746 75.5616 6.66075C17.5569 19.5034 -33.7641 86.4923 28.132 147.009C65.8875 183.926 24.4056 254.321 166.351 254.321Z" fill="#E0ECFF"/>
<path d="M63.3301 22.5629C57.1085 22.5629 52.052 17.5031 52.052 11.2814C52.052 5.06312 57.1118 0 63.3301 0C69.5484 0 74.6115 5.05982 74.6115 11.2814C74.6115 17.4998 69.5484 22.5629 63.3301 22.5629ZM63.3301 4.35679C59.5146 4.35679 56.4087 7.46265 56.4087 11.2814C56.4087 15.1002 59.5146 18.2061 63.3301 18.2061C67.1489 18.2061 70.2548 15.1002 70.2548 11.2814C70.2548 7.46265 67.1489 4.35679 63.3301 4.35679ZM290.642 99.5626C285.622 99.5626 281.543 95.4797 281.543 90.4595C281.543 85.4393 285.625 81.3564 290.642 81.3564C295.659 81.3564 299.745 85.4393 299.745 90.4595C299.745 95.4797 295.663 99.5626 290.642 99.5626ZM290.642 84.8749C287.563 84.8749 285.058 87.38 285.058 90.4628C285.058 93.5423 287.563 96.0507 290.642 96.0507C293.722 96.0507 296.23 93.5456 296.23 90.4628C296.23 87.38 293.722 84.8749 290.642 84.8749ZM20.1088 141.137C16.0952 141.137 12.8309 137.873 12.8309 133.859C12.8309 129.846 16.0952 126.581 20.1088 126.581C24.1223 126.581 27.3866 129.846 27.3866 133.859C27.3866 137.873 24.1223 141.137 20.1088 141.137ZM20.1088 129.39C17.6465 129.39 15.643 131.394 15.643 133.859C15.643 136.325 17.6465 138.328 20.1088 138.328C22.5743 138.328 24.5778 136.325 24.5778 133.859C24.5745 131.394 22.571 129.39 20.1088 129.39Z" fill="#E0ECFF"/>
<path d="M269.37 56.4165H63.3301V191.982H269.37V56.4165Z" fill="white"/>
<path d="M269.528 43.7885H63.1745C60.5967 43.7885 58.5041 45.8777 58.5041 48.4588V51.7726C58.5041 54.3504 60.5934 56.4429 63.1745 56.4429H269.528C272.106 56.4429 274.198 54.3537 274.198 51.7726V48.4588C274.198 45.8777 272.106 43.7885 269.528 43.7885ZM274.172 196.662V199.999C274.172 202.574 272.122 204.683 269.548 204.683H63.1547C60.5802 204.683 58.5305 202.574 58.5305 199.999V196.662C58.5305 194.088 60.5802 191.979 63.1547 191.979H269.548C272.122 191.982 274.172 194.088 274.172 196.662Z" fill="#0061FF"/>
<path d="M128.629 102.304H84.1234C82.3675 102.304 80.9483 100.882 80.9483 99.1293V68.4304C80.9483 66.6745 82.3708 65.2552 84.1234 65.2552H128.629C130.385 65.2552 131.807 66.6778 131.807 68.4304V99.1293C131.804 100.882 130.385 102.304 128.629 102.304Z" fill="#A6C8FF"/>
<path d="M172.055 86.4919H145.63C144.317 86.4919 143.254 85.4292 143.254 84.1155V79.3792C143.254 78.0655 144.317 77.0027 145.63 77.0027H172.055C173.368 77.0027 174.431 78.0655 174.431 79.3792V84.1155C174.431 85.4259 173.368 86.4919 172.055 86.4919ZM192.842 102.305H145.63C144.317 102.305 143.254 101.242 143.254 99.9287V95.1923C143.254 93.8787 144.317 92.8159 145.63 92.8159H192.842C194.156 92.8159 195.218 93.8787 195.218 95.1923V99.9287C195.218 101.242 194.152 102.305 192.842 102.305Z" fill="#E0ECFF"/>
<path d="M124.269 134.915H121.341V126.753C121.341 122.808 124.549 119.597 128.493 119.597H215.662V122.524H128.493C126.16 122.524 124.265 124.422 124.265 126.756V134.915H124.269ZM215.665 177.351H128.497C124.552 177.351 121.344 174.139 121.344 170.195V162.026H124.272V170.195C124.272 172.529 126.166 174.426 128.5 174.426H215.669V177.351H215.665Z" fill="#E0ECFF"/>
<path d="M181.319 147.008H122.803V149.935H181.319V147.008Z" fill="#E0ECFF"/>
<path d="M133.289 162.03H112.32C110.624 162.03 109.247 160.653 109.247 158.957V137.988C109.247 136.292 110.624 134.915 112.32 134.915H133.289C134.985 134.915 136.362 136.292 136.362 137.988V158.957C136.362 160.653 134.985 162.03 133.289 162.03ZM187.346 156.26H175.299C174.325 156.26 173.533 155.471 173.533 154.494V142.447C173.533 141.474 174.322 140.681 175.299 140.681H187.346C188.32 140.681 189.112 141.47 189.112 142.447V154.494C189.109 155.471 188.32 156.26 187.346 156.26ZM221.689 128.845H209.642C208.668 128.845 207.876 128.057 207.876 127.08V115.032C207.876 114.059 208.665 113.267 209.642 113.267H221.689C222.662 113.267 223.455 114.055 223.455 115.032V127.08C223.451 128.057 222.662 128.845 221.689 128.845ZM221.689 183.675H209.642C208.668 183.675 207.876 182.886 207.876 181.909V169.862C207.876 168.888 208.665 168.096 209.642 168.096H221.689C222.662 168.096 223.455 168.885 223.455 169.862V181.909C223.451 182.883 222.662 183.675 221.689 183.675Z" fill="#A6C8FF"/>
<g opacity="0.1">
<path opacity="0.1" d="M136.906 129.934C137.316 131.281 138.781 134.733 137.375 135.964C137.26 136.08 136.672 136.433 136.147 136.727V136.786C135.504 137.08 134.919 137.37 134.685 137.37C134.685 137.43 134.157 140.064 133.573 139.945C133.513 139.945 133.398 139.885 133.338 139.829C132.051 141.994 130.47 144.513 128.774 147.028C128.13 148.021 127.427 149.018 126.783 149.955C123.387 154.929 119.935 159.672 117.944 162.013C117.651 162.362 117.416 162.656 117.185 162.89C117.07 162.95 117.01 163.065 116.951 163.125C116.717 163.359 116.542 163.594 116.423 163.594C116.014 163.943 115.545 164.122 115.136 164.412C114.142 165.056 113.145 165.759 112.033 166.284C111.215 166.693 110.337 166.987 109.459 167.336C108.699 167.63 107.996 167.98 107.234 168.274C106.415 168.508 105.653 168.742 104.894 168.917C104.778 168.977 104.6 169.033 104.485 169.033L105.597 171.726L112.855 189.17C113.383 190.163 112.97 191.394 112.096 191.979C111.98 192.094 111.802 192.213 111.687 192.272L98.2168 197.893L96.989 198.478V199.415C97.1045 201.111 97.2233 202.867 97.3982 204.683H63.1545C60.5801 204.683 58.5304 202.574 58.5304 199.999V196.662C58.5304 194.088 60.5801 191.979 63.1545 191.979H63.3295V161.131C66.2571 157.794 69.9438 154.926 72.5183 152.586V152.645C73.2213 151.942 73.9805 151.418 74.8023 151.124C75.7397 150.774 76.9081 150.655 78.3142 150.655C78.8423 150.655 79.4859 150.655 80.0701 150.715L81.5917 148.081C81.5917 148.081 81.8854 148.196 82.2353 148.374V147.615C80.948 147.265 79.6014 146.678 78.664 145.919C75.7958 143.694 74.1554 136.552 77.258 130.934C77.8422 127.597 83.2288 127.072 87.9123 126.191C92.1866 127.185 94.1768 129.587 93.7676 133.509C93.4177 133.858 92.8896 134.037 92.4209 134.327C92.5959 134.796 92.7147 135.264 92.7708 135.733C93.5893 139.479 93.7676 143.81 92.7114 146.797C91.774 147.734 90.3713 147.968 88.7903 147.85C88.7903 147.909 88.7903 147.965 88.7309 147.965C88.6715 148.668 88.6153 149.312 88.5559 149.84C89.1401 149.899 89.5494 149.955 89.5494 149.955L90.8366 152.649C93.5299 153.292 95.4608 153.877 95.4608 153.877L109.218 155.283L110.33 155.398C117.354 148.315 124.321 141.173 129.236 136.433C128.942 136.139 128.767 135.964 128.767 135.964L130.464 134.911L131.517 134.268L131.635 134.383V134.268C131.635 134.268 132.279 132.043 133.157 129.175C133.566 127.888 138.309 124.201 138.775 124.901C139.6 126.247 136.088 127.534 136.906 129.934ZM274.172 196.662V199.999C274.172 202.574 272.122 204.683 269.548 204.683H251.166C251.576 201.58 251.81 198.652 251.985 195.728C252.044 194.735 252.044 193.738 252.101 192.741V191.982C252.16 191.163 252.16 190.401 252.216 189.582C251.279 190.401 250.341 191.22 249.407 191.982C246.48 194.441 243.671 196.547 241.446 197.718C241.506 197.953 241.096 199.065 240.743 199.884L246.655 203.805C246.948 203.98 247.004 204.333 247.004 204.683C246.889 206.089 245.13 208.254 244.196 207.551L239.865 204.683L237.35 203.042C237.056 203.102 236.766 203.102 236.472 203.042C233.898 202.514 231.03 200.993 230.501 199.296C230.386 199.062 230.501 198.827 230.617 198.593L226.227 195.665C225.699 195.316 225.29 194.903 224.999 194.378L223.653 191.979L223.359 191.51C223.184 191.216 223.418 190.807 223.768 190.866L227.046 191.276C227.63 191.391 228.217 191.569 228.742 191.919L228.858 191.979L235.063 196.134C236.703 195.431 237.816 194.906 237.816 194.906C237.816 194.906 237.931 194.906 237.991 194.906L237.816 194.791L240.04 191.982L252.332 176.235C252.332 170.733 252.447 165.815 253.091 161.719C250.163 159.844 245.598 156.685 241.149 153.348C236.7 150.012 232.251 146.384 229.383 143.631C229.089 143.747 226.63 143.282 226.28 143.163C224.465 142.344 224.699 138.479 224.699 136.958C224.699 134.324 220.778 134.264 221.187 132.624C221.362 131.805 227.333 133.852 228.211 135.024C229.967 137.542 231.373 139.473 231.373 139.473L231.432 139.648L231.492 139.473L256.837 151.999C258.009 150.771 259.821 149.658 261.93 148.721C261.755 148.018 261.52 147.14 261.227 145.972C261.111 145.622 261.052 145.153 260.992 144.744C259.352 144.803 257.949 144.569 256.952 143.631C256.134 141.113 256.134 137.661 256.543 134.383C256.659 133.271 256.893 132.099 257.127 130.987C256.718 130.927 256.309 130.753 255.84 130.693C247.47 129.521 259.062 119.748 269.188 122.029C269.247 122.029 269.303 122.029 269.363 122.088V144.037C268.894 144.212 268.369 144.387 267.901 144.506C268.194 145.15 268.485 145.912 268.897 146.79C269.072 146.79 269.191 146.731 269.366 146.731V191.979H269.541C272.122 191.982 274.172 194.088 274.172 196.662Z" fill="black"/>
</g>
<path d="M65.5972 194.514C65.5972 194.514 66.6071 196.597 67.8944 199.254C68.4984 200.508 67.4884 206.449 66.7095 206.241C65.1516 205.822 66.8778 202.491 64.6598 201.27C63.4089 200.58 60.039 199.013 60.2139 197.138C60.2502 196.762 60.973 194.488 61.2272 194.319C63.6927 192.692 65.5972 194.514 65.5972 194.514Z" fill="#E8B685"/>
<path d="M78.8421 155.573L66.8411 164.528L66.1381 182.496L65.6694 194.438L61.2202 194.322C60.2829 186.946 56.5961 164.294 56.8304 162.597C58.0021 155.573 65.8444 149.953 70.2936 145.857L77.3767 153.933L78.8421 155.573Z" fill="#E0ECFF"/>
<path d="M65.6567 194.415L61.2372 194.333C61.2372 194.333 59.775 191.973 60.2965 191.64C60.818 191.306 66.505 191.296 66.505 191.296L65.6567 194.415Z" fill="#0B409C"/>
<path opacity="0.1" d="M78.8424 155.573L66.8414 164.528L66.1384 182.496C65.9634 182.496 65.8446 182.437 65.7291 182.321C65.201 181.793 65.0261 179.569 64.7917 178.75C64.4418 177.638 64.0293 176.526 63.62 175.413C62.8576 173.073 62.1578 170.614 62.2734 168.096C62.3889 166.574 62.8015 165.053 63.2107 163.59C63.5606 162.359 63.9699 161.132 64.6168 160.019C66.0789 157.501 68.5973 155.864 71.3467 154.986C73.2775 154.342 75.3272 154.048 77.3769 153.933L78.8424 155.573Z" fill="black"/>
<path d="M109.456 185.542L96.0519 191.16L92.0714 192.8L47.2327 211.531C46.0049 212.059 44.5989 211.472 44.1302 210.244L33.3009 184.315C32.7728 183.084 33.3603 181.681 34.5881 181.212L89.9623 158.091L96.7516 155.223C97.9794 154.695 99.3855 155.283 99.8542 156.51L103.425 165L110.683 182.443C111.212 183.612 110.627 185.014 109.456 185.542Z" fill="#A6C8FF"/>
<path d="M66.4416 179.763L42.2878 189.853C41.6541 190.117 40.9247 189.82 40.6606 189.183L39.6506 186.764C39.3866 186.13 39.6836 185.401 40.3174 185.137L64.4711 175.044C65.1048 174.78 65.8343 175.077 66.0983 175.714L67.1083 178.133C67.3724 178.77 67.0753 179.499 66.4416 179.763ZM100.982 182.546L50.1696 203.775C48.9484 204.287 47.549 203.709 47.0374 202.488L43.9975 195.21C43.4892 193.989 44.0635 192.59 45.2848 192.078L96.0975 170.849C97.3187 170.34 98.7181 170.915 99.2297 172.136L102.27 179.414C102.781 180.635 102.204 182.038 100.982 182.546Z" fill="white"/>
<path opacity="0.1" d="M103.425 164.996C102.782 167.046 101.844 168.917 101.319 170.967C99.7384 176.938 101.494 183.962 97.8076 188.879C97.164 189.757 96.5797 190.52 96.0516 191.163L92.0711 192.804C91.2526 192.51 90.2558 191.867 89.0874 190.754C86.2192 188.061 84.4038 184.199 84.3444 180.219C84.2289 177.291 85.1069 174.367 85.9254 171.499C86.9189 167.927 87.9751 164.356 88.9686 160.788C89.2623 159.91 89.5528 158.973 89.962 158.095L96.7514 155.227C97.9792 154.698 99.3853 155.286 99.8539 156.514L103.425 164.996Z" fill="black"/>
<path d="M74.1359 278.765L73.687 284.802C76.0404 285.97 77.7105 287.729 79.8097 289.023C75.5882 290.32 70.7099 288.657 65.4818 285.432C64.8282 283.722 69.0992 281.884 67.68 276.468L74.1359 278.765Z" fill="#E0ECFF"/>
<path d="M65.7157 283.214C68.9866 285.237 71.4489 284.67 73.7329 284.171C74.9409 283.531 83.2848 286.884 83.2815 288.29C82.3507 290.053 73.6339 290.954 64.7189 288.957C63.5175 287.036 64.3955 284.287 65.7157 283.214ZM83.3475 241.151L76.7331 279.96C70.9967 279.785 68.244 280.075 65.7883 278.263L65.8477 277.62L69.3002 238.87C63.3888 221.896 60.4612 206.442 65.8477 194.675L73.6339 192.157L81.1262 189.698C83.5819 210.185 84.9285 228.566 83.3475 241.151Z" fill="#0061FF"/>
<path opacity="0.1" d="M67.6037 220.312C68.7754 228.448 73.8088 235.881 73.515 244.076C73.3401 249.928 70.4719 255.315 69.4751 261.111C69.1252 263.276 69.0064 265.5 68.8909 267.725C68.6565 270.709 68.3067 273.755 66.7851 276.27C66.5508 276.679 66.257 277.089 65.8477 277.617L69.3002 238.868C63.3888 221.893 60.4612 206.439 65.8477 194.673L73.6339 192.154C73.8682 194.085 72.9308 196.31 72.0529 198.185C68.8315 205.093 66.4914 212.76 67.6037 220.312Z" fill="black"/>
<path d="M97.7021 279.736L98.0849 285.779C100.574 286.614 102.471 288.126 104.726 289.123C100.722 290.984 95.659 290.004 90.0414 287.525C89.1601 285.921 93.1407 283.515 90.9953 278.346L97.7021 279.736Z" fill="#E0ECFF"/>
<path d="M89.9722 285.294C93.4874 286.852 95.8506 285.954 98.0455 285.145C99.1545 284.346 107.878 286.525 108.066 287.918C107.386 289.789 98.8739 291.875 89.7676 291.116C88.3186 289.383 88.8137 286.538 89.9722 285.294ZM100.442 280.571C94.7449 281.175 92.045 281.858 89.3682 280.402L87.4704 240.897C79.2783 224.85 74.2416 209.984 77.9878 197.577L92.451 190.54C97.7088 210.512 101.518 228.514 101.656 241.208L100.442 280.571Z" fill="#0061FF"/>
<path opacity="0.1" d="M93.2431 254.261C93.3025 259.998 93.2431 265.734 93.0087 271.411C92.8338 274.339 92.8932 278.494 91.0185 281.01C90.4343 280.894 89.9062 280.716 89.3781 280.425L87.4472 240.914C79.2518 224.876 74.2184 210.007 77.9646 197.6L86.0412 193.62C86.1567 193.62 86.2755 193.679 86.391 193.679C87.7377 193.913 89.1404 194.207 89.9623 195.26C91.2495 196.782 90.6059 199.181 89.4342 200.762C88.2625 202.343 86.566 203.515 85.4537 205.152C83.7571 207.551 83.5228 210.654 83.6977 213.522C84.4569 224.761 91.1307 234.828 92.7117 245.951C93.1242 248.7 93.1837 251.512 93.2431 254.261Z" fill="black"/>
<path d="M95.4081 199.666C86.1763 201.514 69.3466 206.478 62.4285 197.108C62.4285 197.108 59.8343 149.418 72.6241 144.341C77.8324 142.42 93.2627 147.114 93.2627 147.114C98.7219 166.086 92.5861 177.262 95.4081 199.666Z" fill="#E0ECFF"/>
<path d="M86.5694 141.232C86.1601 143.926 86.335 145.506 86.335 145.506C86.335 145.506 83.9355 145.272 81.7109 144.922C80.8923 144.747 80.0705 144.572 79.4269 144.335C80.5986 142.11 79.7206 140.414 80.0111 137.136H87.5034C87.038 138.714 86.7443 140.061 86.5694 141.232Z" fill="#F9D2B2"/>
<path opacity="0.1" d="M87.5067 137.133C87.038 138.714 86.7443 140.061 86.5694 141.229C86.335 141.229 86.1007 141.288 85.9257 141.288C84.8134 141.404 83.5856 141.463 82.7638 142.226C82.1202 142.869 81.8858 143.866 81.7703 144.744C81.7703 144.804 81.7703 144.86 81.7109 144.919C80.8923 144.744 80.0705 144.569 79.4269 144.332C80.5986 142.107 79.7206 140.411 80.0111 137.133H87.5067Z" fill="black"/>
<path d="M90.5488 140.06C88.0305 142.4 82.7627 140.235 78.6073 139.885L78.4917 139.417L75.5641 124.491L88.1493 121.973C89.0272 123.32 89.9646 125.954 90.6082 128.997C91.3674 132.743 91.6017 137.077 90.5488 140.06Z" fill="#F9D2B2"/>
<path opacity="0.1" d="M90.6057 128.997C90.4902 129.056 90.3713 129.056 90.3119 129.056C88.1467 129.584 86.1565 130.871 84.9848 132.802C84.4567 133.621 84.1068 134.558 83.5787 135.377C82.5258 137.192 80.8293 138.595 78.8357 139.298C78.7202 139.357 78.6014 139.357 78.4859 139.417L75.5583 124.491L88.1434 121.973C89.028 123.32 89.9621 125.954 90.6057 128.997Z" fill="black"/>
<path d="M77.5985 143.932L79.4007 141.312C79.4007 141.312 80.9982 142.068 81.4833 142.229C82.8927 142.705 87.365 143.177 87.365 143.177L88.639 145.86C88.639 145.86 82.7145 146.708 80.9586 146.266C79.9849 146.022 77.5985 143.932 77.5985 143.932Z" fill="#0061FF"/>
<path d="M129.418 127.479C129.418 127.479 130.088 125.264 130.949 122.439C131.355 121.109 136.135 117.432 136.564 118.112C137.425 119.475 133.893 120.752 134.696 123.152C135.148 124.508 136.557 127.947 135.154 129.205C134.874 129.459 132.794 130.637 132.497 130.588C129.583 130.113 129.418 127.479 129.418 127.479Z" fill="#F9D2B2"/>
<path d="M114.215 156.858C108.554 161.218 101.135 162.714 94.5631 164.212L93.2626 147.098L108.165 148.66C116.291 140.372 124.417 132.087 129.312 127.513L132.5 130.572C128.193 138.906 115.512 156.244 114.215 156.858Z" fill="#E0ECFF"/>
<path d="M129.309 127.513L132.498 130.572C132.498 130.572 131.969 133.299 131.359 133.186C130.748 133.077 126.566 129.222 126.566 129.222L129.309 127.513Z" fill="#0061FF"/>
<path d="M84.9782 128.898C87.9256 128.931 90.1634 128.248 91.5794 126.739C91.9755 122.851 90.0116 120.412 85.6977 119.419C81.0274 120.336 75.6804 120.851 75.0434 124.191C71.9706 129.815 73.5911 136.951 76.4957 139.166C78.0371 140.447 80.76 141.354 82.4301 141.127C83.5061 140.641 84.1696 140.057 84.2587 138.113C82.9054 136.961 81.7139 135.691 80.9251 134.126C80.661 133.116 81.199 132.291 82.1661 131.562C83.5721 132.017 84.196 132.865 84.1267 134.063L85.5657 132.624C84.7703 131.228 84.3577 129.931 84.9782 128.898Z" fill="#0061FF"/>
<path opacity="0.1" d="M115.951 154.987C115.073 156.099 114.429 156.742 114.195 156.861C108.868 160.957 101.904 162.538 95.639 164.004C95.639 174.658 93.5332 184.666 95.4046 199.65C86.1564 201.525 69.3563 206.499 62.4482 197.132C62.4482 197.132 62.4482 196.898 62.3887 196.429C62.6825 196.544 62.973 196.723 63.2667 196.898C67.4222 199.122 72.515 198.419 77.1391 197.541C81.0602 196.838 85.2751 195.845 87.8529 192.798C91.4241 188.583 90.3679 182.263 91.774 176.936C92.1833 175.529 92.7113 174.186 93.0612 172.78C94.2329 168.156 93.2955 163.063 90.6023 159.201C91.8334 159.376 93.0018 159.436 94.2329 159.436C94.6422 159.495 95.0515 159.495 95.4607 159.495C101.9 159.611 108.396 158.323 114.31 155.808C114.842 155.574 115.426 155.28 115.951 154.987Z" fill="black"/>
<path d="M278.416 281.353L279.463 287.168C277.297 288.538 275.855 290.416 273.951 291.885C278.179 292.717 282.743 290.608 287.49 286.95C287.952 285.228 283.618 283.871 284.45 278.475L278.416 281.353Z" fill="#F9D2B2"/>
<path d="M287.038 284.821C284.07 287.115 281.621 286.432 279.354 286.177C278.681 285.679 270.36 290.158 270.505 291.521C271.588 293.138 287.523 292.61 288.586 290.29C289.556 288.306 288.427 285.725 287.038 284.821Z" fill="#0061FF"/>
<path d="M278.166 284.164C279.496 284.375 283.169 284.755 285.526 282.603L278.456 238.154C277.71 221.879 284.183 203.392 277.271 191.708L260.798 188.166C260.445 209.802 261.072 229.067 264.105 242.019L278.166 284.164Z" fill="#E0ECFF"/>
<path opacity="0.1" d="M287.809 285.518C287.575 285.634 287.4 285.752 287.166 285.812C286.756 285.987 286.288 286.162 285.879 286.34C285.763 286.165 285.585 285.99 285.529 285.756C285.001 285.053 284.591 284.35 284.182 283.531C283.654 282.184 283.189 280.722 282.895 279.257C282.545 277.616 282.311 275.92 282.017 274.283C280.904 267.319 279.264 260.41 277.099 253.737C275.812 249.641 274.29 245.541 274.112 241.27C273.996 238.227 274.521 235.184 275.049 232.138C276.162 226.226 277.214 220.255 278.267 214.285C278.911 210.773 279.555 207.145 279.145 203.574C278.795 201 277.799 197.838 275.808 196.082C274.581 194.969 271.3 192.979 275.34 192.92C276.218 192.92 277.036 192.86 277.914 192.86C283.766 204.627 277.68 222.421 278.442 238.168L285.525 282.594C285.41 282.709 285.232 282.828 285.057 282.944C285.525 283.822 286.11 284.525 286.638 285.109C286.756 285.049 286.931 284.934 287.047 284.815C287.285 284.993 287.575 285.228 287.809 285.518Z" fill="black"/>
<path d="M229.214 132.743C229.214 132.743 227.805 130.772 225.999 128.26C225.148 127.075 219.17 125.036 218.976 125.857C218.583 127.501 222.511 127.577 222.527 130.231C222.534 131.726 222.293 135.614 224.108 136.393C224.475 136.548 226.93 137.02 227.207 136.872C229.937 135.409 229.214 132.743 229.214 132.743Z" fill="#F9D2B2"/>
<path d="M254.183 156.775C261.266 159.194 270.359 154.824 276.356 152.741L271.689 140.044L257.431 146.605L229.333 132.74L227.197 136.846C234.498 144.041 252.721 156.636 254.183 156.775Z" fill="#7599F2"/>
<path d="M256.481 283.871L256.794 289.723C254.497 290.805 252.844 292.475 250.791 293.687C254.85 295.023 259.603 293.512 264.722 290.495C265.386 288.855 261.293 286.99 262.772 281.778L256.481 283.871Z" fill="#F9D2B2"/>
<path d="M264.537 288.343C261.336 290.238 259.009 289.264 256.807 288.736C256.206 288.165 247.467 291.548 247.44 292.908C248.305 294.631 264.059 296.07 265.389 293.918C266.587 292.086 265.791 289.406 264.537 288.343Z" fill="#0061FF"/>
<path d="M256.461 286.841C257.754 287.214 261.352 288.046 263.96 286.204L262.455 241.223C263.729 224.981 272.445 207.439 267.032 194.989L251.124 189.434C248.094 210.858 246.328 230.054 247.734 243.28L256.461 286.841Z" fill="#E0ECFF"/>
<path opacity="0.1" d="M262.464 241.21L263.986 286.224C263.692 286.399 263.402 286.574 263.108 286.692C259.537 277.969 261.002 268.021 260.18 258.595C259.886 255.433 259.362 252.33 259.127 249.171C258.484 240.213 260.355 231.203 263.342 222.773C264.161 220.549 264.979 218.324 265.273 215.984C265.801 211.241 263.517 206.382 259.83 203.339C258.19 202.052 256.318 201.055 254.388 200.412C252.982 200.002 251.226 200.062 249.704 199.883C250.113 196.487 250.582 192.975 251.11 189.407L267.032 194.969C272.415 207.435 263.751 224.994 262.464 241.21Z" fill="black"/>
<path d="M248.945 198.349C258.616 200.287 275.327 201.865 280.189 196.346C280.189 196.346 286.216 145.708 272.815 140.388C267.359 138.374 256.939 142.791 254.325 147.009C248.308 156.729 251.902 174.876 248.945 198.349Z" fill="#A6C8FF"/>
<path d="M267.029 140.822C266.913 141.056 266.735 141.291 266.56 141.466C264.685 143.397 259.827 143.162 259.827 143.162C260.061 142.694 259.533 141.347 259.008 139.241C258.715 137.779 258.365 135.964 258.305 133.855H264.86C265.217 137.251 265.801 137.835 267.029 140.822Z" fill="#F9D2B2"/>
<path opacity="0.1" d="M267.029 140.822C266.914 141.056 266.735 141.291 266.56 141.466C266.501 141.466 266.445 141.406 266.385 141.406C265.742 141.172 265.214 140.763 264.689 140.469C263.108 139.532 261.293 139.122 259.481 139.182C259.306 139.182 259.131 139.182 259.012 139.241C258.718 137.779 258.368 135.964 258.309 133.855H264.864C265.217 137.251 265.801 137.835 267.029 140.822Z" fill="black"/>
<path d="M270.485 120.567L267.323 136.723C266.854 136.783 266.33 136.842 265.802 136.898C261.762 137.542 257.137 139.004 254.797 136.898C253.919 134.38 253.919 130.928 254.329 127.65C254.857 123.61 256.144 119.689 257.312 117.993L270.485 120.567Z" fill="#F9D2B2"/>
<path opacity="0.1" d="M270.485 120.567L267.323 136.723C266.854 136.783 266.33 136.842 265.801 136.898C264.689 135.436 264.63 133.446 263.871 131.746C262.993 129.931 261.177 128.644 259.187 128.059C257.959 127.71 256.669 127.591 255.325 127.591C254.975 127.591 254.622 127.65 254.332 127.65C254.86 123.61 256.147 119.689 257.316 117.993L270.485 120.567Z" fill="black"/>
<path d="M260.639 125.204C257.55 125.241 255.206 124.525 253.724 122.944C253.309 118.867 255.979 117.204 260.501 116.164C265.395 117.128 270.383 116.775 271.049 120.273C274.267 126.165 272.571 133.641 269.528 135.961C267.91 137.301 265.062 138.255 263.313 138.014C262.184 137.506 261.491 136.895 261.395 134.859C262.811 133.651 264.062 132.321 264.887 130.68C265.164 129.624 264.6 128.756 263.587 127.993C262.114 128.469 261.461 129.357 261.534 130.614L260.029 129.109C260.857 127.644 261.286 126.287 260.639 125.204Z" fill="#0061FF"/>
<path d="M253.682 123.957C262.656 125.25 267.102 132.541 272.347 130.954C278.479 129.096 273.198 116.652 267.01 115.276C256.867 113.022 245.275 122.745 253.682 123.957Z" fill="#A6C8FF"/>
<path opacity="0.1" d="M266.914 200.178C260.768 200.237 253.919 199.359 248.942 198.363C249.82 191.514 250.054 185.074 250.114 179.104C251.051 177.991 252.104 176.879 252.748 176.001C255.616 172.02 258.309 167.865 259.946 163.181C261.352 159.201 261.877 154.986 262.405 150.771C263.811 153.23 264.924 155.805 265.567 158.557C267.148 165.056 266.036 172.664 260.943 176.994C258.778 178.869 255.969 180.038 254.504 182.497C253.566 184.018 253.276 185.833 253.098 187.589C252.982 188.995 253.144 190.345 253.272 191.745C254.131 200.954 280.189 196.343 280.189 196.343C280.189 196.343 278.1 200.145 266.795 200.115C266.854 200.118 266.854 200.118 266.914 200.178Z" fill="black"/>
<path d="M222.814 187.622L221.154 184.757C220.979 184.453 221.227 184.081 221.573 184.123L224.857 184.536C225.451 184.612 226.022 184.823 226.524 185.153L244.483 197.055C245.75 197.894 243.258 201.653 241.991 200.815L224.032 188.913C223.534 188.583 223.118 188.14 222.814 187.622Z" fill="#A6C8FF"/>
<path d="M235.618 188.17C235.618 188.17 233.4 189.151 230.574 190.408C229.241 191.002 228.01 191.755 228.287 192.553C228.865 194.227 231.696 195.768 234.297 196.293C235.763 196.59 237.02 195.531 238.149 193.913C238.377 193.587 239.337 191.279 239.248 190.976C238.374 188.005 235.618 188.17 235.618 188.17Z" fill="#F9D2B2"/>
<path d="M261.903 169.829C268.746 162.452 263.171 144.827 257.019 145.926C252.612 146.883 251.886 152.656 252.738 157.128L252.909 165.931L235.634 188.055L239.222 190.979C246.81 187.068 261.748 171.918 261.903 169.829Z" fill="#A6C8FF"/>
</svg>
