<svg width="20" height="20" viewBox="0 0 20 20" fill="none" xmlns="http://www.w3.org/2000/svg">
<path d="M18.092 16.9083L15.0003 13.8416C16.2004 12.3453 16.7816 10.446 16.6243 8.53434C16.4671 6.62267 15.5834 4.84391 14.1549 3.56379C12.7265 2.28368 10.8618 1.59951 8.94443 1.65198C7.02702 1.70445 5.20259 2.48956 3.84628 3.84587C2.48996 5.20219 1.70485 7.02662 1.65238 8.94402C1.59992 10.8614 2.28408 12.7261 3.56419 14.1545C4.84431 15.583 6.62308 16.4667 8.53474 16.6239C10.4464 16.7812 12.3457 16.2 13.842 14.9999L16.9087 18.0666C16.9861 18.1447 17.0783 18.2067 17.1798 18.249C17.2814 18.2913 17.3903 18.3131 17.5003 18.3131C17.6103 18.3131 17.7193 18.2913 17.8208 18.249C17.9224 18.2067 18.0145 18.1447 18.092 18.0666C18.2422 17.9112 18.3262 17.7035 18.3262 17.4874C18.3262 17.2713 18.2422 17.0636 18.092 16.9083ZM9.16699 14.9999C8.01327 14.9999 6.88545 14.6578 5.92617 14.0168C4.96688 13.3759 4.21921 12.4648 3.77769 11.3989C3.33618 10.333 3.22066 9.16012 3.44574 8.02856C3.67082 6.89701 4.2264 5.8576 5.0422 5.0418C5.85801 4.22599 6.89741 3.67042 8.02896 3.44534C9.16052 3.22026 10.3334 3.33578 11.3993 3.77729C12.4652 4.2188 13.3763 4.96647 14.0172 5.92576C14.6582 6.88505 15.0003 8.01286 15.0003 9.16659C15.0003 10.7137 14.3857 12.1974 13.2918 13.2914C12.1978 14.3853 10.7141 14.9999 9.16699 14.9999Z" fill="#BAC1CE"/>
</svg>
