<svg width="20" height="20" viewBox="0 0 20 20" fill="none" xmlns="http://www.w3.org/2000/svg">
<path d="M18.2662 9.66671C16.5829 5.75837 13.4162 3.33337 9.99957 3.33337C6.5829 3.33337 3.41623 5.75837 1.7329 9.66671C1.68701 9.77185 1.66333 9.88533 1.66333 10C1.66333 10.1148 1.68701 10.2282 1.7329 10.3334C3.41623 14.2417 6.5829 16.6667 9.99957 16.6667C13.4162 16.6667 16.5829 14.2417 18.2662 10.3334C18.3121 10.2282 18.3358 10.1148 18.3358 10C18.3358 9.88533 18.3121 9.77185 18.2662 9.66671ZM9.99957 15C7.3579 15 4.8579 13.0917 3.41623 10C4.8579 6.90837 7.3579 5.00004 9.99957 5.00004C12.6412 5.00004 15.1412 6.90837 16.5829 10C15.1412 13.0917 12.6412 15 9.99957 15ZM9.99957 6.66671C9.3403 6.66671 8.69583 6.8622 8.14767 7.22848C7.5995 7.59475 7.17226 8.11534 6.91997 8.72443C6.66768 9.33352 6.60167 10.0037 6.73028 10.6503C6.8589 11.2969 7.17637 11.8909 7.64254 12.3571C8.10872 12.8232 8.70266 13.1407 9.34927 13.2693C9.99587 13.3979 10.6661 13.3319 11.2752 13.0796C11.8843 12.8273 12.4049 12.4001 12.7711 11.8519C13.1374 11.3038 13.3329 10.6593 13.3329 10C13.3329 9.11599 12.9817 8.26814 12.3566 7.64302C11.7315 7.0179 10.8836 6.66671 9.99957 6.66671ZM9.99957 11.6667C9.66993 11.6667 9.3477 11.569 9.07362 11.3858C8.79954 11.2027 8.58591 10.9424 8.45977 10.6378C8.33362 10.3333 8.30062 9.99819 8.36492 9.67489C8.42923 9.35159 8.58797 9.05462 8.82106 8.82153C9.05414 8.58844 9.35112 8.42971 9.67442 8.3654C9.99772 8.30109 10.3328 8.3341 10.6374 8.46024C10.9419 8.58639 11.2022 8.80001 11.3853 9.07409C11.5685 9.34817 11.6662 9.6704 11.6662 10C11.6662 10.4421 11.4906 10.866 11.1781 11.1786C10.8655 11.4911 10.4416 11.6667 9.99957 11.6667Z" fill="#BAC1CE"/>
</svg>
