<svg width="24" height="24" viewBox="0 0 24 24" fill="none" xmlns="http://www.w3.org/2000/svg">
<path d="M21.7002 20.3L18.0002 16.6C21.1002 12.7 20.5002 6.99999 16.6002 3.89999C12.7002 0.799994 7.00024 1.49999 3.90024 5.29999C0.800239 9.19999 1.50024 14.9 5.30024 18C8.60024 20.6 13.3002 20.6 16.6002 18L20.3002 21.7C20.7002 22.1 21.3002 22.1 21.7002 21.7C22.1002 21.3 22.1002 20.7 21.7002 20.3ZM11.0002 18C7.10024 18 4.00024 14.9 4.00024 11C4.00024 7.09999 7.10024 3.99999 11.0002 3.99999C14.9002 3.99999 18.0002 7.09999 18.0002 11C18.0002 14.9 14.9002 18 11.0002 18Z" fill="#262B35"/>
</svg>
