<svg width="72" height="56" viewBox="0 0 72 56" fill="none" xmlns="http://www.w3.org/2000/svg">
<g clip-path="url(#clip0_1217_5048)" filter="url(#filter0_d_1217_5048)">
<path d="M12 12H60V43.9993H12V12Z" fill="white"/>
<path d="M22.6897 27.9998L12 17.3052V38.6962L22.6897 27.9998Z" fill="#262B35"/>
<path d="M27.1117 27.9997L12 12.8778V17.3052L22.6898 27.9998L12 38.6962V43.1154L27.1117 27.9997Z" fill="#FFB915"/>
<path d="M59.7968 31.1301C59.8023 31.0888 59.8722 31.0478 60 31.0065V24.8693H32.8689L19.9997 12H12V12.8778L27.1117 27.9997L12 43.1153V43.9993H19.9997L32.8689 31.1301H59.7968Z" fill="#007847"/>
<path d="M59.1732 34.2606H34.1656L24.4268 43.9993H60V34.2606H59.1732Z" fill="#000C8A"/>
<path d="M59.1732 21.7387H60V12H24.4268L34.1656 21.7387H59.1732Z" fill="#E1392D"/>
</g>
<defs>
<filter id="filter0_d_1217_5048" x="0" y="-0.000366211" width="72" height="56" filterUnits="userSpaceOnUse" color-interpolation-filters="sRGB">
<feFlood flood-opacity="0" result="BackgroundImageFix"/>
<feColorMatrix in="SourceAlpha" type="matrix" values="0 0 0 0 0 0 0 0 0 0 0 0 0 0 0 0 0 0 127 0" result="hardAlpha"/>
<feMorphology radius="4" operator="dilate" in="SourceAlpha" result="effect1_dropShadow_1217_5048"/>
<feOffset/>
<feGaussianBlur stdDeviation="4"/>
<feComposite in2="hardAlpha" operator="out"/>
<feColorMatrix type="matrix" values="0 0 0 0 0.333333 0 0 0 0 0.333333 0 0 0 0 0.333333 0 0 0 0.15 0"/>
<feBlend mode="normal" in2="BackgroundImageFix" result="effect1_dropShadow_1217_5048"/>
<feBlend mode="normal" in="SourceGraphic" in2="effect1_dropShadow_1217_5048" result="shape"/>
</filter>
<clipPath id="clip0_1217_5048">
<rect width="48" height="32" fill="white" transform="translate(12 11.9996)"/>
</clipPath>
</defs>
</svg>
