<svg width="142" height="14" viewBox="0 0 142 14" fill="none" xmlns="http://www.w3.org/2000/svg">
<path d="M70.7178 13.2384H65.8377V0.191585H70.7178V13.2384ZM66.3142 12.7619H70.2413V0.668166H66.3142V12.7619ZM77.5082 13.2384H72.7261V0.191585H82.7172C84.1484 0.0756812 85.5738 0.477505 86.7338 1.32394C87.2332 1.7808 87.6202 2.34686 87.8647 2.97795C88.1093 3.60905 88.2047 4.28811 88.1435 4.96215C88.2148 6.12689 87.8441 7.27567 87.1055 8.17907C86.2315 9.1818 84.777 9.69841 82.7829 9.71652C82.2806 9.72986 78.5166 9.71652 77.511 9.71652L77.5082 13.2384ZM73.1999 12.7619H77.0316V9.23517H77.2708C77.3194 9.23517 82.2063 9.25042 82.7715 9.23517C84.6292 9.21897 85.9646 8.75859 86.7452 7.85976C87.4027 7.04238 87.7293 6.00791 87.6603 4.9612C87.7189 4.35725 87.6376 3.74791 87.4227 3.18045C87.2078 2.61299 86.8651 2.10264 86.4212 1.689C85.3456 0.917036 84.0297 0.554673 82.7105 0.667213H73.2027L73.1999 12.7619ZM81.7049 6.78555H76.9992V3.23407H81.7364C82.0722 3.18767 82.4143 3.22687 82.7308 3.34801C83.0474 3.46915 83.3283 3.66832 83.5474 3.92702C83.7461 4.25771 83.8398 4.64092 83.8162 5.02602C83.834 5.38355 83.7568 5.73943 83.5922 6.05734C83.3662 6.32983 83.0739 6.53959 82.7433 6.66645C82.4128 6.79332 82.0552 6.83302 81.7049 6.78174V6.78555ZM77.4757 6.30897H81.7049C82.4865 6.30897 82.9707 6.14598 83.1852 5.81047C83.3033 5.5666 83.3567 5.29648 83.3405 5.02602C83.3614 4.74203 83.2998 4.45807 83.1633 4.2082L83.1575 4.19963C82.9307 3.86602 82.4798 3.71065 81.7364 3.71065H77.4757V6.30897ZM96.8411 13.431C92.5614 13.431 90.0069 12.3682 89.0338 10.1826C88.8745 9.76046 88.7664 9.32077 88.7116 8.87297L88.6697 8.59846H93.7615L93.7948 8.79863C93.834 9.00184 93.9206 9.19314 94.0464 9.35718C94.2476 9.60024 94.9186 10.0082 97.1452 10.0082C99.8216 10.0082 99.8216 9.53828 99.8216 9.28569C99.8216 8.85963 99.5119 8.7138 97.3291 8.48122L96.9145 8.44214C96.0929 8.36494 95.0539 8.26676 94.5793 8.22578C90.576 7.86358 88.7888 6.6197 88.7888 4.19391C88.7888 1.64611 91.8303 0 96.538 0C100.378 0 102.853 1.01226 103.891 3.01103C104.137 3.47597 104.302 3.97944 104.38 4.49987L104.413 4.76771H99.3155L99.2946 4.5523C99.2745 4.38395 99.203 4.22602 99.0887 4.1005C98.898 3.84505 98.2956 3.4228 96.4255 3.4228C94.1294 3.4228 93.8129 3.71637 93.8129 4.03282C93.8129 4.45507 94.5383 4.60472 96.863 4.85349C97.8324 4.93261 99.3908 5.09274 99.9246 5.15755C103.281 5.52166 104.778 6.73503 104.778 9.09315C104.779 11.071 103.402 13.431 96.8411 13.431ZM89.2263 9.07504C89.2741 9.38939 89.3562 9.69746 89.4713 9.99389C90.3577 11.985 92.7692 12.9544 96.8411 12.9544C100.246 12.9544 104.305 12.2872 104.305 9.09315C104.305 7.00287 102.98 5.96774 99.8741 5.63127C99.3403 5.56646 97.7914 5.40728 96.824 5.32722C94.3457 5.05842 93.3383 4.91545 93.3383 4.03282C93.3383 3.1197 94.4239 2.94622 96.4274 2.94622C98.0106 2.94622 99.0334 3.23217 99.4671 3.80883C99.5853 3.9509 99.6749 4.11475 99.7301 4.29113H103.861C103.778 3.92249 103.647 3.56643 103.47 3.23217C102.517 1.40305 100.189 0.47658 96.5399 0.47658C92.122 0.47658 89.2673 1.93587 89.2673 4.19391C89.2673 6.34805 90.8696 7.41178 94.6231 7.7511C95.0997 7.79209 96.1377 7.89026 96.9612 7.96842L97.3787 8.0075C99.4061 8.22101 100.3 8.35445 100.3 9.28569C100.3 10.2884 99.1439 10.4848 97.1471 10.4848C95.2999 10.4848 94.1332 10.2074 93.6823 9.66124C93.5434 9.48709 93.4385 9.28817 93.3735 9.07504H89.2263ZM113.833 13.4148C108.858 13.4148 106.113 11.4027 106.113 7.74824V0.191585H110.928V7.74824C110.928 9.00165 112.05 9.72033 114.005 9.72033C115.873 9.72033 117.033 8.9702 117.033 7.76445V0.191585H121.799V8.14857C121.803 11.4951 118.897 13.4148 113.83 13.4148H113.833ZM106.589 0.668166V7.74824C106.589 12.2643 111.124 12.9382 113.833 12.9382C116.633 12.9382 121.33 12.3158 121.33 8.14857V0.668166H117.517V7.76445C117.517 9.24185 116.141 10.1969 114.012 10.1969C111.788 10.1969 110.459 9.28188 110.459 7.74824V0.668166H106.589ZM141.994 13.2384H137.45V7.34792L134.872 13.2384H130.908L128.357 7.35935V13.2384H123.796V0.191585H129.796L132.913 7.38509L136.18 0.191585H142L141.994 13.2384ZM137.926 12.7619H141.518V0.668166H136.483L132.897 8.55938L129.479 0.668166H124.269V12.7619H127.877V5.06605L131.213 12.7647H134.549L137.92 5.07749L137.926 12.7619ZM4.34069 0.429876H0V13.0002H11.9946V9.65361H4.34069V0.429876ZM20.756 0.143927C15.2153 0.143927 12.3015 2.76989 12.3015 6.62542C12.3015 10.9814 15.3602 13.1908 20.756 13.1908C26.6961 13.1908 29.1944 10.6287 29.1944 6.62542C29.1944 2.56019 26.3759 0.142021 20.756 0.142021V0.143927ZM20.7398 3.41041C21.117 3.40864 21.494 3.4306 21.8684 3.47618L17.0158 8.32872C16.7862 7.80934 16.6742 7.24555 16.6879 6.67784C16.6879 4.70575 17.6811 3.4085 20.7398 3.4085V3.41041ZM20.756 9.97578C20.3926 9.9774 20.0294 9.957 19.6685 9.91478L24.5296 5.05366C24.7506 5.56446 24.8564 6.1177 24.8394 6.67403C24.8394 8.59274 23.9243 9.97387 20.756 9.97387V9.97578ZM37.7947 8.26009H42.2622C42.1964 8.57015 42.0593 8.86058 41.8619 9.1084C40.9357 9.86293 39.7537 10.2301 38.563 10.1331C37.9636 10.1972 37.3576 10.1317 36.7858 9.94109C36.214 9.75055 35.6898 9.43924 35.2488 9.02834C34.7971 8.3658 34.5826 7.5701 34.6398 6.7703C34.5667 5.93223 34.8 5.09609 35.2965 4.41695C35.9208 3.71161 36.9779 3.40755 38.5315 3.40755C39.52 3.3257 40.5073 3.57958 41.3338 4.12814C41.5943 4.33505 41.789 4.61321 41.8943 4.92879H46.0377C46.0075 4.40882 45.8825 3.89874 45.6688 3.42375C44.6765 1.40591 42.3699 0.20493 38.4476 0.20493C35.0363 0.20493 32.7468 1.24578 31.4819 2.81564C30.6466 3.94929 30.2178 5.33145 30.2648 6.73885C30.2107 8.17812 30.6285 9.59556 31.4543 10.7755C32.7039 12.3959 34.9295 13.1927 37.6041 13.1927C39.3822 13.3167 41.1482 12.8187 42.5996 11.7839L42.7121 13.0002H46.1539V5.55407H37.7947V8.26009ZM55.9229 0.141068C50.3831 0.141068 47.4683 2.76703 47.4683 6.62256C47.4683 10.9785 50.5261 13.1879 55.9229 13.1879C61.8639 13.1879 64.3622 10.6258 64.3622 6.62256C64.3622 2.56019 61.5437 0.141068 55.9229 0.141068ZM55.9076 3.40755C56.2749 3.40646 56.6419 3.42747 57.0066 3.47046L52.1731 8.3068C51.9507 7.79314 51.8424 7.23744 51.8557 6.67784C51.8519 4.70575 52.8489 3.40755 55.9076 3.40755ZM55.9229 9.97292C55.5498 9.97454 55.177 9.95281 54.8067 9.90811L59.684 5.02983C59.9135 5.54742 60.0233 6.11007 60.0053 6.67594C60.0072 8.59274 59.096 9.97292 55.9229 9.97292Z" fill="#0061FF"/>
</svg>
