<svg width="118" height="18" viewBox="0 0 118 18" fill="none" xmlns="http://www.w3.org/2000/svg">
<g clip-path="url(#clip0_1926_1872)">
<path d="M17.9531 6.90472C17.8352 6.54024 17.512 6.28137 17.1295 6.2469L11.9342 5.77516L9.87984 0.966735C9.72836 0.61434 9.38339 0.38623 9.00009 0.38623C8.61679 0.38623 8.27182 0.61434 8.12034 0.967559L6.06598 5.77516L0.869862 6.2469C0.488078 6.28219 0.165621 6.54024 0.0471028 6.90472C-0.0714152 7.2692 0.0380389 7.66898 0.326849 7.92098L4.25388 11.365L3.09589 16.466C3.01115 16.841 3.15672 17.2287 3.46792 17.4537C3.63519 17.5745 3.83089 17.636 4.02824 17.636C4.19839 17.636 4.36717 17.5902 4.51865 17.4995L9.00009 14.8211L13.4799 17.4995C13.8077 17.6967 14.2209 17.6787 14.5314 17.4537C14.8428 17.228 14.9882 16.8402 14.9035 16.466L13.7455 11.365L17.6725 7.92167C17.9613 7.66898 18.0716 7.26989 17.9531 6.90472Z" fill="#FFB543"/>
</g>
<g clip-path="url(#clip1_1926_1872)">
<path d="M42.9531 6.90472C42.8352 6.54024 42.512 6.28137 42.1295 6.2469L36.9342 5.77516L34.8798 0.966735C34.7284 0.61434 34.3834 0.38623 34.0001 0.38623C33.6168 0.38623 33.2718 0.61434 33.1203 0.967559L31.066 5.77516L25.8699 6.2469C25.4881 6.28219 25.1656 6.54024 25.0471 6.90472C24.9286 7.2692 25.038 7.66898 25.3268 7.92098L29.2539 11.365L28.0959 16.466C28.0112 16.841 28.1567 17.2287 28.4679 17.4537C28.6352 17.5745 28.8309 17.636 29.0282 17.636C29.1984 17.636 29.3672 17.5902 29.5187 17.4995L34.0001 14.8211L38.4799 17.4995C38.8077 17.6967 39.2209 17.6787 39.5314 17.4537C39.8428 17.228 39.9882 16.8402 39.9035 16.466L38.7455 11.365L42.6725 7.92167C42.9613 7.66898 43.0716 7.26989 42.9531 6.90472Z" fill="#FFB543"/>
</g>
<g clip-path="url(#clip2_1926_1872)">
<path d="M67.9531 6.90472C67.8352 6.54024 67.512 6.28137 67.1295 6.2469L61.9342 5.77516L59.8798 0.966735C59.7284 0.61434 59.3834 0.38623 59.0001 0.38623C58.6168 0.38623 58.2718 0.61434 58.1203 0.967559L56.066 5.77516L50.8699 6.2469C50.4881 6.28219 50.1656 6.54024 50.0471 6.90472C49.9286 7.2692 50.038 7.66898 50.3268 7.92098L54.2539 11.365L53.0959 16.466C53.0112 16.841 53.1567 17.2287 53.4679 17.4537C53.6352 17.5745 53.8309 17.636 54.0282 17.636C54.1984 17.636 54.3672 17.5902 54.5187 17.4995L59.0001 14.8211L63.4799 17.4995C63.8077 17.6967 64.2209 17.6787 64.5314 17.4537C64.8428 17.228 64.9882 16.8402 64.9035 16.466L63.7455 11.365L67.6725 7.92167C67.9613 7.66898 68.0716 7.26989 67.9531 6.90472Z" fill="#FFB543"/>
</g>
<g clip-path="url(#clip3_1926_1872)">
<path d="M92.9531 6.90472C92.8352 6.54024 92.512 6.28137 92.1295 6.2469L86.9342 5.77516L84.8798 0.966735C84.7284 0.61434 84.3834 0.38623 84.0001 0.38623C83.6168 0.38623 83.2718 0.61434 83.1203 0.967559L81.066 5.77516L75.8699 6.2469C75.4881 6.28219 75.1656 6.54024 75.0471 6.90472C74.9286 7.2692 75.038 7.66898 75.3268 7.92098L79.2539 11.365L78.0959 16.466C78.0112 16.841 78.1567 17.2287 78.4679 17.4537C78.6352 17.5745 78.8309 17.636 79.0282 17.636C79.1984 17.636 79.3672 17.5902 79.5187 17.4995L84.0001 14.8211L88.4799 17.4995C88.8077 17.6967 89.2209 17.6787 89.5314 17.4537C89.8428 17.228 89.9882 16.8402 89.9035 16.466L88.7455 11.365L92.6725 7.92167C92.9613 7.66898 93.0716 7.26989 92.9531 6.90472Z" fill="#FFB543"/>
</g>
<g clip-path="url(#clip4_1926_1872)">
<path d="M117.953 6.90472C117.835 6.54024 117.512 6.28137 117.129 6.2469L111.934 5.77516L109.88 0.966735C109.728 0.61434 109.383 0.38623 109 0.38623C108.617 0.38623 108.272 0.61434 108.12 0.967559L106.066 5.77516L100.87 6.2469C100.488 6.28219 100.166 6.54024 100.047 6.90472C99.9286 7.2692 100.038 7.66898 100.327 7.92098L104.254 11.365L103.096 16.466C103.011 16.841 103.157 17.2287 103.468 17.4537C103.635 17.5745 103.831 17.636 104.028 17.636C104.198 17.636 104.367 17.5902 104.519 17.4995L109 14.8211L113.48 17.4995C113.808 17.6967 114.221 17.6787 114.531 17.4537C114.843 17.228 114.988 16.8402 114.903 16.466L113.745 11.365L117.673 7.92167C117.961 7.66898 118.072 7.26989 117.953 6.90472Z" fill="#C5C5C5"/>
</g>
<defs>
<clipPath id="clip0_1926_1872">
<rect width="18" height="18" fill="white"/>
</clipPath>
<clipPath id="clip1_1926_1872">
<rect width="18" height="18" fill="white" transform="translate(25)"/>
</clipPath>
<clipPath id="clip2_1926_1872">
<rect width="18" height="18" fill="white" transform="translate(50)"/>
</clipPath>
<clipPath id="clip3_1926_1872">
<rect width="18" height="18" fill="white" transform="translate(75)"/>
</clipPath>
<clipPath id="clip4_1926_1872">
<rect width="18" height="18" fill="white" transform="translate(100)"/>
</clipPath>
</defs>
</svg>
