<svg width="72" height="56" viewBox="0 0 72 56" fill="none" xmlns="http://www.w3.org/2000/svg">
<g clip-path="url(#clip0_1217_5032)" filter="url(#filter0_d_1217_5032)">
<path d="M12 12H60V44.0003H12V12Z" fill="white"/>
<path d="M39 11.9997H33V24.9996H12V30.9996H33V43.9996H39V30.9996H60V24.9996H39V11.9997Z" fill="#D80027"/>
<path d="M48.9173 33.5648L60 39.7219V33.5648H48.9173ZM41.2174 33.5648L60 43.9996V41.0489L46.5288 33.5648H41.2174ZM54.9969 43.9996L41.2174 36.3436V43.9996H54.9969Z" fill="#0052B4"/>
<path d="M41.2174 33.5648L60 43.9996V41.0489L46.5288 33.5648H41.2174Z" fill="white"/>
<path d="M41.2174 33.5648L60 43.9996V41.0489L46.5288 33.5648H41.2174Z" fill="#D80027"/>
<path d="M20.4695 33.5646L12 38.2699V33.5646H20.4695ZM30.7826 34.8916V43.9995H14.3898L30.7826 34.8916Z" fill="#0052B4"/>
<path d="M25.4712 33.5648L12 41.0489V43.9996L30.7826 33.5648H25.4712Z" fill="#D80027"/>
<path d="M23.0827 22.4344L12 16.2773V22.4344H23.0827ZM30.7826 22.4344L12 11.9997V14.9504L25.4712 22.4344H30.7826ZM17.0031 11.9997L30.7826 19.6557V11.9997H17.0031Z" fill="#0052B4"/>
<path d="M30.7826 22.4344L12 11.9997V14.9504L25.4712 22.4344H30.7826Z" fill="white"/>
<path d="M30.7826 22.4344L12 11.9997V14.9504L25.4712 22.4344H30.7826Z" fill="#D80027"/>
<path d="M51.5305 22.4347L60 17.7293V22.4347H51.5305ZM41.2174 21.1077V11.9998H57.6102L41.2174 21.1077Z" fill="#0052B4"/>
<path d="M46.5288 22.4344L60 14.9504V11.9997L41.2174 22.4344H46.5288Z" fill="#D80027"/>
</g>
<defs>
<filter id="filter0_d_1217_5032" x="0" y="0" width="72" height="56" filterUnits="userSpaceOnUse" color-interpolation-filters="sRGB">
<feFlood flood-opacity="0" result="BackgroundImageFix"/>
<feColorMatrix in="SourceAlpha" type="matrix" values="0 0 0 0 0 0 0 0 0 0 0 0 0 0 0 0 0 0 127 0" result="hardAlpha"/>
<feMorphology radius="4" operator="dilate" in="SourceAlpha" result="effect1_dropShadow_1217_5032"/>
<feOffset/>
<feGaussianBlur stdDeviation="4"/>
<feComposite in2="hardAlpha" operator="out"/>
<feColorMatrix type="matrix" values="0 0 0 0 0.333333 0 0 0 0 0.333333 0 0 0 0 0.333333 0 0 0 0.15 0"/>
<feBlend mode="normal" in2="BackgroundImageFix" result="effect1_dropShadow_1217_5032"/>
<feBlend mode="normal" in="SourceGraphic" in2="effect1_dropShadow_1217_5032" result="shape"/>
</filter>
<clipPath id="clip0_1217_5032">
<rect width="48" height="32" fill="white" transform="translate(12 12)"/>
</clipPath>
</defs>
</svg>
