<svg width="30" height="30" viewBox="0 0 30 30" fill="none" xmlns="http://www.w3.org/2000/svg">
<path d="M16.2499 4.37498C16.2499 3.8777 16.0524 3.40079 15.7008 3.04916C15.3491 2.69753 14.8722 2.49998 14.3749 2.49998C13.8777 2.49998 13.4007 2.69753 13.0491 3.04916C12.6975 3.40079 12.4999 3.8777 12.4999 4.37498V12.5H4.37494C3.87766 12.5 3.40074 12.6975 3.04911 13.0492C2.69748 13.4008 2.49994 13.8777 2.49994 14.375C2.49994 14.8723 2.69748 15.3492 3.04911 15.7008C3.40074 16.0524 3.87766 16.25 4.37494 16.25H12.4999V24.375C12.4999 24.8723 12.6975 25.3492 13.0491 25.7008C13.4007 26.0524 13.8777 26.25 14.3749 26.25C14.8722 26.25 15.3491 26.0524 15.7008 25.7008C16.0524 25.3492 16.2499 24.8723 16.2499 24.375V16.25H24.3749C24.8722 16.25 25.3491 16.0524 25.7008 15.7008C26.0524 15.3492 26.2499 14.8723 26.2499 14.375C26.2499 13.8777 26.0524 13.4008 25.7008 13.0492C25.3491 12.6975 24.8722 12.5 24.3749 12.5H16.2499V4.37498Z" fill="white"/>
</svg>
