<svg width="150" height="50" viewBox="0 0 150 50" fill="none" xmlns="http://www.w3.org/2000/svg">
<path d="M43.75 25.3125C43.75 22.8125 41.7969 21.4844 39.0625 21.4844H31.1719C31.7188 19.375 32.0312 17.3437 32.0312 15.625C32.0312 8.82812 30.1562 7.42188 28.5156 7.42188C27.4219 7.42188 26.6406 7.5 25.5469 8.20312C25.2344 8.35937 25.0781 8.67187 25 8.98437L23.8281 15.3125C22.5781 18.6719 19.375 21.5625 16.7969 23.5156V40.2344C17.6562 40.2344 18.75 40.7031 19.7656 41.25C21.0156 41.875 22.3438 42.5 23.8281 42.5H35C37.3438 42.5 39.0625 40.625 39.0625 38.9844C39.0625 38.6719 39.0625 38.3594 38.9844 38.125C40.4688 37.5781 41.4062 36.3281 41.4062 34.9219C41.4062 34.2188 41.25 33.5937 41.0156 33.125C41.875 32.5 42.8125 31.4844 42.8125 30.2344C42.8125 29.6094 42.5 28.8281 42.0312 28.2813C43.0469 27.5 43.75 26.4062 43.75 25.3125ZM41.3281 25.3125C41.3281 26.7969 39.7656 26.9531 39.5312 27.6562C39.2969 28.4375 40.4688 28.75 40.4688 30.1563C40.4688 31.6406 38.6719 31.6406 38.4375 32.3437C38.125 33.2031 38.9844 33.5156 38.9844 34.9219C38.9844 35 38.9844 35.0781 38.9844 35.1562C38.75 36.3281 36.9531 36.4063 36.6406 36.875C36.3281 37.4219 36.7188 37.7344 36.7188 38.9844C36.7188 39.6875 35.9375 40.1562 35 40.1562H23.8281C22.9688 40.1562 21.875 39.6875 20.8594 39.1406C19.9219 38.6719 18.9844 38.2031 17.9688 37.9688V25.5469C20.8594 23.3594 24.6094 20 26.0938 15.9375C26.0938 15.8594 26.0938 15.7813 26.1719 15.7813L27.2656 9.92188C27.6563 9.76563 27.9687 9.76562 28.5937 9.76562C28.8281 9.76562 29.7656 11.1719 29.7656 15.625C29.7656 17.3437 29.4531 19.2969 28.8281 21.4844H28.5156C27.8906 21.4844 27.3438 22.0312 27.3438 22.6562C27.3438 23.2812 27.8906 23.8281 28.5156 23.8281H39.0625C40.2344 23.8281 41.3281 24.375 41.3281 25.3125Z" fill="#0061FF" stroke="#0061FF" stroke-width="1.04167"/>
<path d="M15.625 42.5781H8.59375C7.26562 42.5781 6.25 41.5625 6.25 40.2344V23.8281C6.25 22.5 7.26562 21.4844 8.59375 21.4844H15.625C16.9531 21.4844 17.9688 22.5 17.9688 23.8281V40.2344C17.9688 41.5625 16.9531 42.5781 15.625 42.5781ZM8.59375 23.8281V40.2344H15.625V23.8281H8.59375Z" fill="#0061FF" stroke="#0061FF" stroke-width="1.04167"/>
<path d="M143.75 24.6875C143.75 27.1875 141.797 28.5156 139.062 28.5156H131.172C131.719 30.625 132.031 32.6562 132.031 34.375C132.031 41.1719 130.156 42.5781 128.516 42.5781C127.422 42.5781 126.641 42.5 125.547 41.7969C125.234 41.6406 125.078 41.3281 125 41.0156L123.828 34.6875C122.578 31.3281 119.375 28.4375 116.797 26.4844V9.76562C117.656 9.76562 118.75 9.29688 119.766 8.75001C121.016 8.12501 122.344 7.5 123.828 7.5H135C137.344 7.5 139.062 9.375 139.062 11.0156C139.062 11.3281 139.062 11.6406 138.984 11.875C140.469 12.4219 141.406 13.6719 141.406 15.0781C141.406 15.7812 141.25 16.4063 141.016 16.875C141.875 17.5 142.812 18.5156 142.812 19.7656C142.812 20.3906 142.5 21.1719 142.031 21.7187C143.047 22.5 143.75 23.5938 143.75 24.6875ZM141.328 24.6875C141.328 23.2031 139.766 23.0469 139.531 22.3438C139.297 21.5625 140.469 21.25 140.469 19.8437C140.469 18.3594 138.672 18.3594 138.438 17.6563C138.125 16.7969 138.984 16.4844 138.984 15.0781C138.984 15 138.984 14.9219 138.984 14.8438C138.75 13.6719 136.953 13.5937 136.641 13.125C136.328 12.5781 136.719 12.2656 136.719 11.0156C136.719 10.3125 135.938 9.84375 135 9.84375H123.828C122.969 9.84375 121.875 10.3125 120.859 10.8594C119.922 11.3281 118.984 11.7969 117.969 12.0312V24.4531C120.859 26.6406 124.609 30 126.094 34.0625C126.094 34.1406 126.094 34.2187 126.172 34.2187L127.266 40.0781C127.656 40.2344 127.969 40.2344 128.594 40.2344C128.828 40.2344 129.766 38.8281 129.766 34.375C129.766 32.6562 129.453 30.7031 128.828 28.5156H128.516C127.891 28.5156 127.344 27.9688 127.344 27.3438C127.344 26.7188 127.891 26.1719 128.516 26.1719H139.062C140.234 26.1719 141.328 25.625 141.328 24.6875Z" fill="#75839D" stroke="#75839D" stroke-width="1.04167"/>
<path d="M115.625 7.42188H108.594C107.266 7.42188 106.25 8.4375 106.25 9.76562V26.1719C106.25 27.5 107.266 28.5156 108.594 28.5156H115.625C116.953 28.5156 117.969 27.5 117.969 26.1719V9.76562C117.969 8.4375 116.953 7.42188 115.625 7.42188ZM108.594 26.1719V9.76562H115.625V26.1719H108.594Z" fill="#75839D" stroke="#75839D" stroke-width="1.04167"/>
</svg>
