<svg width="21" height="21" viewBox="0 0 21 21" fill="none" xmlns="http://www.w3.org/2000/svg">
<path fill-rule="evenodd" clip-rule="evenodd" d="M2.76747 7.12384L1.2762 9.82999L6.83605 13.7335C9.89396 15.8805 12.4087 17.6337 12.4243 17.6295C12.4399 17.6253 13.7414 14.8496 15.3163 11.4613L18.1799 5.30072L15.5353 3.70273L12.8907 2.10474L8.57474 3.26121L4.25874 4.41768L2.76747 7.12384ZM7.55651 4.61102C7.5642 4.63969 5.86536 7.35346 5.82029 7.38452C5.78867 7.40635 5.20783 5.2724 5.23346 5.22862C5.25677 5.18874 7.54809 4.57957 7.55651 4.61102ZM12.7562 4.37255C12.9352 5.01986 13.0429 5.45643 13.0231 5.45471C12.9689 5.44993 10.1386 3.94758 10.1311 3.91959C10.1273 3.9055 10.6489 3.75749 11.2902 3.5907L12.4561 3.28747L12.7562 4.37255ZM12.4323 6.32358C12.4424 6.33699 11.1706 6.69091 9.60605 7.11012C8.04154 7.52933 6.76327 7.85912 6.76546 7.84301C6.76762 7.82687 7.24662 7.05334 7.82992 6.12405L8.89048 4.43439L10.6522 5.36681C11.6212 5.87965 12.4222 6.31019 12.4323 6.32358ZM4.97042 8.34059C4.9656 8.34888 4.51379 8.47148 3.96639 8.61305L2.97117 8.87045L3.68883 7.56423L4.40652 6.25801L4.69286 7.29178C4.85038 7.86035 4.97525 8.33234 4.97042 8.34059ZM14.6817 4.37793C15.2267 4.70781 15.8024 5.05695 15.961 5.15385L16.2495 5.33002L15.2386 5.60088L14.2277 5.87174L13.9481 4.82797C13.7942 4.2539 13.6734 3.78285 13.6796 3.78119C13.6858 3.77954 14.1367 4.04806 14.6817 4.37793ZM7.3602 11.6711C8.42083 12.9876 9.34583 14.136 9.41572 14.223C9.48621 14.3107 9.51602 14.365 9.48263 14.3449C9.3564 14.2687 3.17542 9.9165 3.17122 9.90081C3.16879 9.89174 3.6764 9.74776 4.29931 9.58085L5.43179 9.2774L7.3602 11.6711ZM13.2091 7.21969C13.2225 7.269 11.9093 15.6175 11.8872 15.6234C11.8651 15.6293 6.55354 9.05594 6.54048 9.00655C6.53695 8.99309 8.03443 8.58003 9.86825 8.08866C11.7021 7.59728 13.2055 7.20627 13.2091 7.21969ZM16.5741 6.30951C16.5783 6.3252 13.4016 13.1848 13.3303 13.3139C13.3115 13.348 13.3101 13.2861 13.3273 13.1749C13.3443 13.0646 13.5712 11.6076 13.8315 9.9371L14.3047 6.89991L15.4372 6.59646C16.0601 6.42955 16.5717 6.30044 16.5741 6.30951Z" fill="#0061FF"/>
</svg>
