<svg width="20" height="20" viewBox="0 0 20 20" fill="none" xmlns="http://www.w3.org/2000/svg">
<path d="M10 12.5C10.8841 12.5 11.7319 12.1488 12.357 11.5237C12.9822 10.8985 13.3333 10.0507 13.3333 9.16665V4.16665C13.3333 3.28259 12.9822 2.43474 12.357 1.80962C11.7319 1.1845 10.8841 0.833313 10 0.833313C9.11595 0.833313 8.26811 1.1845 7.64299 1.80962C7.01787 2.43474 6.66668 3.28259 6.66668 4.16665V9.16665C6.66668 10.0507 7.01787 10.8985 7.64299 11.5237C8.26811 12.1488 9.11595 12.5 10 12.5ZM8.33334 4.16665C8.33334 3.72462 8.50894 3.3007 8.8215 2.98813C9.13406 2.67557 9.55798 2.49998 10 2.49998C10.442 2.49998 10.866 2.67557 11.1785 2.98813C11.4911 3.3007 11.6667 3.72462 11.6667 4.16665V9.16665C11.6667 9.60867 11.4911 10.0326 11.1785 10.3452C10.866 10.6577 10.442 10.8333 10 10.8333C9.55798 10.8333 9.13406 10.6577 8.8215 10.3452C8.50894 10.0326 8.33334 9.60867 8.33334 9.16665V4.16665ZM16.6667 9.16665C16.6667 8.94563 16.5789 8.73367 16.4226 8.57739C16.2663 8.42111 16.0544 8.33331 15.8333 8.33331C15.6123 8.33331 15.4004 8.42111 15.2441 8.57739C15.0878 8.73367 15 8.94563 15 9.16665C15 10.4927 14.4732 11.7645 13.5355 12.7022C12.5979 13.6399 11.3261 14.1666 10 14.1666C8.67393 14.1666 7.40216 13.6399 6.46448 12.7022C5.52679 11.7645 5.00001 10.4927 5.00001 9.16665C5.00001 8.94563 4.91221 8.73367 4.75593 8.57739C4.59965 8.42111 4.38769 8.33331 4.16668 8.33331C3.94566 8.33331 3.7337 8.42111 3.57742 8.57739C3.42114 8.73367 3.33334 8.94563 3.33334 9.16665C3.33481 10.7894 3.92811 12.3559 5.00201 13.5725C6.0759 14.789 7.55666 15.5721 9.16668 15.775V17.5H7.50001C7.279 17.5 7.06703 17.5878 6.91075 17.7441C6.75447 17.9003 6.66668 18.1123 6.66668 18.3333C6.66668 18.5543 6.75447 18.7663 6.91075 18.9226C7.06703 19.0788 7.279 19.1666 7.50001 19.1666H12.5C12.721 19.1666 12.933 19.0788 13.0893 18.9226C13.2455 18.7663 13.3333 18.5543 13.3333 18.3333C13.3333 18.1123 13.2455 17.9003 13.0893 17.7441C12.933 17.5878 12.721 17.5 12.5 17.5H10.8333V15.775C12.4434 15.5721 13.9241 14.789 14.998 13.5725C16.0719 12.3559 16.6652 10.7894 16.6667 9.16665Z" fill="#BAC1CE"/>
</svg>
