<svg width="24" height="24" viewBox="0 0 24 24" fill="none" xmlns="http://www.w3.org/2000/svg">
<path d="M18.7104 7.2101C18.6175 7.11638 18.5069 7.04198 18.385 6.99121C18.2632 6.94044 18.1324 6.91431 18.0004 6.91431C17.8684 6.91431 17.7377 6.94044 17.6159 6.99121C17.494 7.04198 17.3834 7.11638 17.2904 7.2101L9.84044 14.6701L6.71044 11.5301C6.61392 11.4369 6.49998 11.3636 6.37512 11.3143C6.25026 11.2651 6.11694 11.241 5.98276 11.2433C5.84858 11.2457 5.71617 11.2744 5.59309 11.3279C5.47001 11.3814 5.35868 11.4586 5.26544 11.5551C5.1722 11.6516 5.09889 11.7656 5.04968 11.8904C5.00048 12.0153 4.97635 12.1486 4.97867 12.2828C4.98099 12.417 5.00972 12.5494 5.06321 12.6725C5.1167 12.7955 5.19392 12.9069 5.29044 13.0001L9.13044 16.8401C9.2234 16.9338 9.334 17.0082 9.45586 17.059C9.57772 17.1098 9.70843 17.1359 9.84044 17.1359C9.97245 17.1359 10.1032 17.1098 10.225 17.059C10.3469 17.0082 10.4575 16.9338 10.5504 16.8401L18.7104 8.68011C18.8119 8.58646 18.893 8.47281 18.9484 8.34631C19.0038 8.21981 19.0324 8.08321 19.0324 7.94511C19.0324 7.807 19.0038 7.6704 18.9484 7.5439C18.893 7.4174 18.8119 7.30375 18.7104 7.2101Z" fill="#262B35"/>
</svg>
