<svg width="72" height="56" viewBox="0 0 72 56" fill="none" xmlns="http://www.w3.org/2000/svg">
<g clip-path="url(#clip0_1217_5039)" filter="url(#filter0_d_1217_5039)">
<path d="M12 12H60V44H12V12Z" fill="white"/>
<path d="M12 12H60V14.4608H12V12ZM12 16.9216H60V19.3825H12V16.9216ZM12 21.8433H60V24.3041H12V21.8433ZM12 26.7649H60V29.2257H12V26.7649ZM12 31.6959H60V34.1567H12V31.6959ZM12 36.6175H60V39.0784H12V36.6175ZM12 41.5392H60V44H12V41.5392Z" fill="#D80027"/>
<path d="M12 12H36V29.2257H12V12Z" fill="#2E52B2"/>
<path d="M16.4725 24.9965L16.0982 23.7988L15.6865 24.9965H14.4515L15.4526 25.7169L15.0784 26.9146L16.0982 26.1754L17.0901 26.9146L16.7064 25.7169L17.7263 24.9965H16.4725ZM21.7404 24.9965L21.3567 23.7988L20.9637 24.9965H19.7287L20.7298 25.7169L20.3556 26.9146L21.3567 26.1754L22.3673 26.9146L21.993 25.7169L22.9942 24.9965H21.7404ZM27.0269 24.9965L26.6246 23.7988L26.2503 24.9965H24.9871L26.0164 25.7169L25.6234 26.9146L26.6246 26.1754L27.6538 26.9146L27.2608 25.7169L28.262 24.9965H27.0269ZM32.2854 24.9965L31.9111 23.7988L31.5181 24.9965H30.2737L31.2842 25.7169L30.9099 26.9146L31.9111 26.1754L32.9216 26.9146L32.5193 25.7169L33.5485 24.9965H32.2854ZM21.3567 19.0456L20.9637 20.2433H19.7287L20.7298 20.9824L20.3556 22.1614L21.3567 21.4316L22.3673 22.1614L21.993 20.9824L22.9942 20.2433H21.7404L21.3567 19.0456ZM16.0982 19.0456L15.6865 20.2433H14.4515L15.4526 20.9824L15.0784 22.1614L16.0982 21.4316L17.0901 22.1614L16.7064 20.9824L17.7263 20.2433H16.4725L16.0982 19.0456ZM26.6246 19.0456L26.2503 20.2433H24.9871L26.0164 20.9824L25.6234 22.1614L26.6246 21.4316L27.6538 22.1614L27.2608 20.9824L28.262 20.2433H27.0269L26.6246 19.0456ZM31.9111 19.0456L31.5181 20.2433H30.2737L31.2842 20.9824L30.9099 22.1614L31.9111 21.4316L32.9216 22.1614L32.5193 20.9824L33.5485 20.2433H32.2854L31.9111 19.0456ZM16.0982 14.3111L15.6865 15.49H14.4515L15.4526 16.2292L15.0784 17.4175L16.0982 16.6783L17.0901 17.4175L16.7064 16.2292L17.7263 15.49H16.4725L16.0982 14.3111ZM21.3567 14.3111L20.9637 15.49H19.7287L20.7298 16.2292L20.3556 17.4175L21.3567 16.6783L22.3673 17.4175L21.993 16.2292L22.9942 15.49H21.7404L21.3567 14.3111ZM26.6246 14.3111L26.2503 15.49H24.9871L26.0164 16.2292L25.6234 17.4175L26.6246 16.6783L27.6538 17.4175L27.2608 16.2292L28.262 15.49H27.0269L26.6246 14.3111ZM31.9111 14.3111L31.5181 15.49H30.2737L31.2842 16.2292L30.9099 17.4175L31.9111 16.6783L32.9216 17.4175L32.5193 16.2292L33.5485 15.49H32.2854L31.9111 14.3111Z" fill="white"/>
</g>
<defs>
<filter id="filter0_d_1217_5039" x="0" y="0" width="72" height="56" filterUnits="userSpaceOnUse" color-interpolation-filters="sRGB">
<feFlood flood-opacity="0" result="BackgroundImageFix"/>
<feColorMatrix in="SourceAlpha" type="matrix" values="0 0 0 0 0 0 0 0 0 0 0 0 0 0 0 0 0 0 127 0" result="hardAlpha"/>
<feMorphology radius="4" operator="dilate" in="SourceAlpha" result="effect1_dropShadow_1217_5039"/>
<feOffset/>
<feGaussianBlur stdDeviation="4"/>
<feComposite in2="hardAlpha" operator="out"/>
<feColorMatrix type="matrix" values="0 0 0 0 0.333333 0 0 0 0 0.333333 0 0 0 0 0.333333 0 0 0 0.15 0"/>
<feBlend mode="normal" in2="BackgroundImageFix" result="effect1_dropShadow_1217_5039"/>
<feBlend mode="normal" in="SourceGraphic" in2="effect1_dropShadow_1217_5039" result="shape"/>
</filter>
<clipPath id="clip0_1217_5039">
<rect width="48" height="32" fill="white" transform="translate(12 12)"/>
</clipPath>
</defs>
</svg>
