<svg width="16" height="16" viewBox="0 0 16 16" fill="none" xmlns="http://www.w3.org/2000/svg">
<path d="M8.00004 15.2066C7.54004 15.2066 7.10671 14.9733 6.80004 14.5666L5.80004 13.2333C5.78004 13.2066 5.70004 13.1733 5.66671 13.1666H5.33337C2.55337 13.1666 0.833374 12.4133 0.833374 8.66665V5.33331C0.833374 2.38665 2.38671 0.833313 5.33337 0.833313H10.6667C13.6134 0.833313 15.1667 2.38665 15.1667 5.33331V8.66665C15.1667 11.6133 13.6134 13.1666 10.6667 13.1666H10.3334C10.28 13.1666 10.2334 13.1933 10.2 13.2333L9.20004 14.5666C8.89337 14.9733 8.46004 15.2066 8.00004 15.2066ZM5.33337 1.83331C2.94671 1.83331 1.83337 2.94665 1.83337 5.33331V8.66665C1.83337 11.68 2.86671 12.1666 5.33337 12.1666H5.66671C6.00671 12.1666 6.39337 12.36 6.60004 12.6333L7.60004 13.9666C7.83337 14.2733 8.16671 14.2733 8.40004 13.9666L9.40004 12.6333C9.62004 12.34 9.96671 12.1666 10.3334 12.1666H10.6667C13.0534 12.1666 14.1667 11.0533 14.1667 8.66665V5.33331C14.1667 2.94665 13.0534 1.83331 10.6667 1.83331H5.33337Z" fill="#75839D"/>
<path d="M8.00004 8.00002C7.62671 8.00002 7.33337 7.70002 7.33337 7.33335C7.33337 6.96669 7.63337 6.66669 8.00004 6.66669C8.36671 6.66669 8.66671 6.96669 8.66671 7.33335C8.66671 7.70002 8.37337 8.00002 8.00004 8.00002Z" fill="#75839D"/>
<path d="M10.6667 8.00002C10.2933 8.00002 10 7.70002 10 7.33335C10 6.96669 10.3 6.66669 10.6667 6.66669C11.0333 6.66669 11.3333 6.96669 11.3333 7.33335C11.3333 7.70002 11.04 8.00002 10.6667 8.00002Z" fill="#75839D"/>
<path d="M5.33329 8.00002C4.95996 8.00002 4.66663 7.70002 4.66663 7.33335C4.66663 6.96669 4.96663 6.66669 5.33329 6.66669C5.69996 6.66669 5.99996 6.96669 5.99996 7.33335C5.99996 7.70002 5.70663 8.00002 5.33329 8.00002Z" fill="#75839D"/>
</svg>
