<svg width="24" height="18" viewBox="0 0 24 18" fill="none" xmlns="http://www.w3.org/2000/svg">
<path d="M23.4502 0.505139C23.2915 0.345078 23.1026 0.218033 22.8945 0.131335C22.6864 0.0446363 22.4632 0 22.2377 0C22.0123 0 21.7891 0.0446363 21.581 0.131335C21.3729 0.218033 21.184 0.345078 21.0253 0.505139L8.30278 13.2447L2.95763 7.88247C2.7928 7.72325 2.59822 7.59805 2.385 7.51402C2.17179 7.43 1.94411 7.38879 1.71496 7.39275C1.48582 7.39672 1.2597 7.44577 1.04952 7.53713C0.839339 7.62848 0.649207 7.76033 0.489982 7.92517C0.330757 8.09 0.205558 8.28458 0.121531 8.49779C0.0375047 8.71101 -0.00370326 8.93869 0.000261141 9.16783C0.00422555 9.39697 0.0532845 9.62309 0.144636 9.83328C0.235988 10.0435 0.367844 10.2336 0.532675 10.3928L7.09031 16.9504C7.24906 17.1105 7.43794 17.2376 7.64604 17.3242C7.85414 17.4109 8.07735 17.4556 8.30278 17.4556C8.52822 17.4556 8.75143 17.4109 8.95953 17.3242C9.16763 17.2376 9.35651 17.1105 9.51526 16.9504L23.4502 3.01548C23.6236 2.85557 23.7619 2.66148 23.8565 2.44546C23.9511 2.22943 24 1.99615 24 1.76031C24 1.52447 23.9511 1.29119 23.8565 1.07516C23.7619 0.859139 23.6236 0.665054 23.4502 0.505139Z" fill="white"/>
</svg>
