<svg width="72" height="56" viewBox="0 0 72 56" fill="none" xmlns="http://www.w3.org/2000/svg">
<g clip-path="url(#clip0_1217_5035)" filter="url(#filter0_d_1217_5035)">
<path d="M12 12H60V44H12V12Z" fill="#10338C"/>
<path d="M32.7907 27.9719C32.8187 27.9438 32.8374 27.9158 32.8655 27.8877C32.8468 27.9158 32.8187 27.9438 32.7907 27.9719ZM29.5907 31.8924L30.6199 34.0351L32.931 33.5017L31.9018 35.6351L33.7638 37.1134L31.4433 37.6374L31.4526 40.014L29.5907 38.5263L27.738 40.014L27.7474 37.6374L25.4269 37.1134L27.2889 35.6351L26.2503 33.5017L28.5708 34.0351L29.5907 31.8924ZM48.1076 34.559L48.5942 35.5789L49.6983 35.3263L49.2024 36.3462L50.0912 37.0479L48.9871 37.2912V38.4327L48.1076 37.7216L47.2187 38.4327L47.2281 37.2912L46.124 37.0479L47.0129 36.3462L46.517 35.3263L47.6211 35.5789L48.1076 34.559ZM43.5602 23.7053L44.0468 24.7251L45.1509 24.4725L44.655 25.4924L45.5439 26.1941L44.4398 26.4468V27.5789L43.5602 26.8678L42.6714 27.5789L42.6807 26.4468L41.5673 26.1941L42.4562 25.4924L41.9602 24.4725L43.0643 24.7251L43.5602 23.7053ZM48.1076 17.5111L48.5942 18.531L49.6983 18.2784L49.2024 19.2982L50.0912 20L48.9871 20.2526V21.3848L48.1076 20.6737L47.2187 21.3848L47.2281 20.2526L46.124 20L47.0129 19.2982L46.517 18.2784L47.6211 18.531L48.1076 17.5111ZM52.0842 22.1614L52.5708 23.1813L53.6749 22.9286L53.179 23.9485L54.0678 24.6503L52.9638 24.8936V26.0351L52.0842 25.324L51.1953 26.0351V24.8936L50.0912 24.6503L50.9801 23.9485L50.4842 22.9286L51.5883 23.1813L52.0842 22.1614ZM49.2398 27.5789L49.6234 28.7672H50.8678L49.8573 29.4971L50.2503 30.6854L49.2398 29.9462L48.2293 30.6854L48.6129 29.4971L47.6117 28.7672H48.8562L49.2398 27.5789Z" fill="white"/>
<path d="M35.8409 12V14.8632L31.6211 17.2117H35.8409V22.7602H30.3111L35.8409 25.8292V27.9719H33.3427L26.4655 24.145V27.9719H21.2632V23.4246L13.0854 27.9719H11.8877V25.1088L16.117 22.7602H11.8877V17.2117H17.4176L11.8877 14.1333V12H14.386L21.2632 15.8175V12H26.4655V16.5474L34.6526 12H35.8409Z" fill="white"/>
<path d="M25.3614 12H22.3673V18.4842H11.8877V21.4784H22.3673V27.9719H25.3614V21.4784H35.8409V18.4842H25.3614V12Z" fill="#D80027"/>
<path d="M26.4655 22.7603L35.8409 27.9719V26.4936L29.1228 22.7603H26.4655Z" fill="#0052B4"/>
<path d="M26.4655 22.7603L35.8409 27.9719V26.4936L29.1228 22.7603H26.4655Z" fill="white"/>
<path d="M26.4655 22.7603L35.8409 27.9719V26.4936L29.1228 22.7603H26.4655ZM18.6152 22.7603L11.8877 26.4936V27.9719L21.2632 22.7603H18.6152Z" fill="#D80027"/>
<path d="M21.2632 17.2117L11.8877 12V13.469L18.6152 17.2117H21.2632Z" fill="#0052B4"/>
<path d="M21.2632 17.2117L11.8877 12V13.469L18.6152 17.2117H21.2632Z" fill="white"/>
<path d="M21.2632 17.2117L11.8877 12V13.469L18.6152 17.2117H21.2632ZM29.1228 17.2117L35.8409 13.469V12L26.4655 17.2117H29.1228Z" fill="#D80027"/>
</g>
<defs>
<filter id="filter0_d_1217_5035" x="0" y="0" width="72" height="56" filterUnits="userSpaceOnUse" color-interpolation-filters="sRGB">
<feFlood flood-opacity="0" result="BackgroundImageFix"/>
<feColorMatrix in="SourceAlpha" type="matrix" values="0 0 0 0 0 0 0 0 0 0 0 0 0 0 0 0 0 0 127 0" result="hardAlpha"/>
<feMorphology radius="4" operator="dilate" in="SourceAlpha" result="effect1_dropShadow_1217_5035"/>
<feOffset/>
<feGaussianBlur stdDeviation="4"/>
<feComposite in2="hardAlpha" operator="out"/>
<feColorMatrix type="matrix" values="0 0 0 0 0.333333 0 0 0 0 0.333333 0 0 0 0 0.333333 0 0 0 0.15 0"/>
<feBlend mode="normal" in2="BackgroundImageFix" result="effect1_dropShadow_1217_5035"/>
<feBlend mode="normal" in="SourceGraphic" in2="effect1_dropShadow_1217_5035" result="shape"/>
</filter>
<clipPath id="clip0_1217_5035">
<rect width="48" height="32" fill="white" transform="translate(12 12)"/>
</clipPath>
</defs>
</svg>
